<svg width="1256" height="1157" viewBox="0 0 1256 1157" fill="none" xmlns="http://www.w3.org/2000/svg">
<path d="M261.374 247.577L261.677 269.134C263.866 425.21 432.672 521.729 568.29 444.449L587.78 433.342C715.252 360.704 873.785 452.122 874.768 598.834L875.112 650.142C875.823 756.294 980.545 830.391 1080.88 795.737V795.737" stroke="black" stroke-width="0.653416"/>
<path d="M254.22 259.969L254.522 281.527C256.711 437.603 425.517 534.122 561.135 456.841L580.625 445.735C708.097 373.096 866.63 464.515 867.613 611.227L867.957 662.535C868.668 768.687 973.39 842.784 1073.73 808.13V808.13" stroke="black" stroke-width="0.653416"/>
<path d="M247.066 272.362L247.368 293.919C249.557 449.995 418.363 546.515 553.981 469.234L573.471 458.128C700.943 385.489 859.476 476.907 860.459 623.62L860.803 674.928C861.514 781.08 966.236 855.176 1066.58 820.523V820.523" stroke="black" stroke-width="0.653416"/>
<path d="M239.91 284.755L240.213 306.312C242.402 462.388 411.207 558.908 546.825 481.627L566.315 470.521C693.787 397.882 852.321 489.3 853.304 636.012L853.647 687.32C854.359 793.472 959.081 867.569 1059.42 832.915V832.915" stroke="black" stroke-width="0.653416"/>
<path d="M232.756 297.147L233.058 318.704C235.248 474.78 404.053 571.3 539.671 494.019L559.161 482.913C686.633 410.274 845.167 501.692 846.15 648.405L846.493 699.713C847.205 805.865 951.927 879.961 1052.27 845.308V845.308" stroke="black" stroke-width="0.653416"/>
<path d="M225.599 309.54L225.901 331.097C228.091 487.173 396.896 583.693 532.514 506.412L552.004 495.306C679.476 422.667 838.01 514.085 838.992 660.798L839.336 712.106C840.047 818.258 944.77 892.354 1045.11 857.701V857.701" stroke="black" stroke-width="0.653416"/>
<path d="M218.446 321.933L218.748 343.49C220.937 499.566 389.743 596.086 525.361 518.805L544.851 507.699C672.323 435.06 830.856 526.478 831.839 673.191L832.183 724.498C832.894 830.65 937.616 904.747 1037.96 870.094V870.094" stroke="black" stroke-width="0.653416"/>
<path d="M211.29 334.325L211.593 355.882C213.782 511.958 382.588 608.478 518.206 531.197L537.696 520.091C665.168 447.452 823.701 538.87 824.684 685.583L825.028 736.891C825.739 843.043 930.461 917.139 1030.8 882.486V882.486" stroke="black" stroke-width="0.653416"/>
<path d="M204.135 346.718L204.438 368.275C206.627 524.351 375.433 620.871 511.051 543.59L530.541 532.484C658.013 459.845 816.546 551.263 817.529 697.976L817.873 749.283C818.584 855.436 923.306 929.532 1023.65 894.879V894.879" stroke="black" stroke-width="0.653416"/>
<path d="M196.981 359.11L197.283 380.668C199.473 536.744 368.278 633.263 503.896 555.982L523.386 544.876C650.858 472.237 809.392 563.656 810.375 710.368L810.718 761.676C811.429 867.828 916.152 941.925 1016.49 907.271V907.271" stroke="black" stroke-width="0.653416"/>
<path d="M189.826 371.503L190.129 393.06C192.318 549.136 361.123 645.656 496.741 568.375L516.231 557.269C643.703 484.63 802.237 576.048 803.22 722.761L803.563 774.069C804.275 880.221 908.997 954.317 1009.34 919.664V919.664" stroke="black" stroke-width="0.653416"/>
<path d="M182.671 383.896L182.973 405.453C185.162 561.529 353.968 658.048 489.586 580.768L509.076 569.661C636.548 497.023 795.081 588.441 796.064 735.153L796.408 786.461C797.119 892.613 901.841 966.71 1002.18 932.056V932.056" stroke="black" stroke-width="0.653416"/>
<path d="M175.517 396.288L175.819 417.845C178.008 573.921 346.814 670.441 482.432 593.16L501.922 582.054C629.394 509.415 787.927 600.833 788.91 747.546L789.254 798.854C789.965 905.006 894.687 979.102 995.026 944.449V944.449" stroke="black" stroke-width="0.653416"/>
<path d="M168.362 408.681L168.664 430.238C170.853 586.314 339.659 682.834 475.277 605.553L494.767 594.447C622.239 521.808 780.772 613.226 781.755 759.938L782.099 811.246C782.81 917.398 887.532 991.495 987.871 956.841V956.841" stroke="black" stroke-width="0.653416"/>
<path d="M161.206 421.073L161.509 442.631C163.698 598.707 332.503 695.226 468.122 617.946L487.612 606.839C615.083 534.2 773.617 625.619 774.6 772.331L774.944 823.639C775.655 929.791 880.377 1003.89 980.716 969.234V969.234" stroke="black" stroke-width="0.653416"/>
<path d="M154.221 433.173L154.523 454.73C156.712 610.806 325.518 707.326 461.136 630.045L480.626 618.939C608.098 546.3 766.631 637.718 767.614 784.43L767.958 835.738C768.669 941.89 873.391 1015.99 973.73 981.333V981.333" stroke="black" stroke-width="0.653416"/>
<path d="M147.235 445.272L147.537 466.829C149.727 622.905 318.532 719.425 454.15 642.144L473.64 631.038C601.112 558.399 759.646 649.817 760.629 796.53L760.972 847.838C761.684 953.99 866.406 1028.09 966.745 993.433V993.433" stroke="black" stroke-width="0.653416"/>
<path d="M140.249 457.371L140.552 478.928C142.741 635.005 311.547 731.524 447.165 654.243L466.655 643.137C594.127 570.498 752.66 661.917 753.643 808.629L753.987 859.937C754.698 966.089 859.42 1040.19 959.759 1005.53V1005.53" stroke="black" stroke-width="0.653416"/>
<path d="M133.264 469.471L133.567 491.028C135.756 647.104 304.562 743.624 440.18 666.343L459.67 655.237C587.142 582.598 745.675 674.016 746.658 820.728L747.002 872.036C747.713 978.188 852.435 1052.29 952.774 1017.63V1017.63" stroke="black" stroke-width="0.653416"/>
<path d="M126.279 481.57L126.581 503.127C128.77 659.203 297.576 755.723 433.194 678.442L452.684 667.336C580.156 594.697 738.689 686.115 739.672 832.828L740.016 884.136C740.727 990.288 845.449 1064.38 945.788 1029.73V1029.73" stroke="black" stroke-width="0.653416"/>
<path d="M119.293 493.669L119.596 515.226C121.785 671.302 290.59 767.822 426.208 690.541L445.698 679.435C573.17 606.796 731.704 698.214 732.687 844.927L733.031 896.235C733.742 1002.39 838.464 1076.48 938.803 1041.83V1041.83" stroke="black" stroke-width="0.653416"/>
<path d="M112.308 505.768L112.61 527.325C114.799 683.402 283.605 779.921 419.223 702.64L438.713 691.534C566.185 618.895 724.718 710.314 725.701 857.026L726.045 908.334C726.756 1014.49 831.478 1088.58 931.817 1053.93V1053.93" stroke="black" stroke-width="0.653416"/>
<path d="M105.322 517.867L105.624 539.425C107.814 695.501 276.619 792.02 412.237 714.74L431.727 703.633C559.199 630.994 717.733 722.413 718.716 869.125L719.059 920.433C719.77 1026.59 824.493 1100.68 924.832 1066.03V1066.03" stroke="black" stroke-width="0.653416"/>
<path d="M98.3364 529.967L98.6388 551.524C100.828 707.6 269.634 804.12 405.252 726.839L424.742 715.733C552.214 643.094 710.747 734.512 711.73 881.225L712.074 932.533C712.785 1038.68 817.507 1112.78 917.846 1078.13V1078.13" stroke="black" stroke-width="0.653416"/>
<path d="M91.3515 542.066L91.6539 563.623C93.8432 719.699 262.649 816.219 398.267 738.938L417.757 727.832C545.229 655.193 703.762 746.611 704.745 893.324L705.089 944.632C705.8 1050.78 810.522 1124.88 910.861 1090.23V1090.23" stroke="black" stroke-width="0.653416"/>
<path d="M84.3659 554.165L84.6683 575.723C86.8576 731.799 255.663 828.318 391.281 751.038L410.771 739.931C538.243 667.292 696.777 758.711 697.76 905.423L698.103 956.731C698.814 1062.88 803.537 1136.98 903.876 1102.33V1102.33" stroke="black" stroke-width="0.653416"/>
<path d="M77.3803 566.265L77.6827 587.822C79.872 743.898 248.678 840.418 384.296 763.137L403.786 752.031C531.258 679.392 689.791 770.81 690.774 917.522L691.118 968.83C691.829 1074.98 796.551 1149.08 896.89 1114.43V1114.43" stroke="black" stroke-width="0.653416"/>
<path d="M70.3947 578.364L70.6971 599.921C72.8864 755.997 241.692 852.517 377.31 775.236L396.8 764.13C524.272 691.491 682.805 782.909 683.788 929.622L684.132 980.93C684.843 1087.08 789.565 1161.18 889.904 1126.52V1126.52" stroke="black" stroke-width="0.653416"/>
<path d="M63.4091 590.463L63.7115 612.021C65.9009 768.097 234.706 864.616 370.324 787.335L389.814 776.229C517.286 703.59 675.82 795.009 676.803 941.721L677.146 993.029C677.858 1099.18 782.58 1173.28 882.919 1138.62V1138.62" stroke="black" stroke-width="0.653416"/>
</svg>
