<svg width="512" height="788" viewBox="0 0 512 788" fill="none" xmlns="http://www.w3.org/2000/svg">
<path d="M136.568 404.1L92.53 507.612L49.4 404.1H0.822L68.695 563H112.96L181.06 404.1H136.568ZM267.368 566.178C296.651 566.178 320.259 555.509 335.695 536.214L307.093 510.336C297.105 522.367 284.847 528.95 269.638 528.95C243.533 528.95 225.373 510.79 225.373 483.55C225.373 456.31 243.533 438.15 269.638 438.15C284.847 438.15 297.105 444.733 307.093 456.764L335.695 430.886C320.259 411.591 296.651 400.922 267.368 400.922C216.974 400.922 179.973 435.199 179.973 483.55C179.973 531.901 216.974 566.178 267.368 566.178ZM458.873 523.729C450.928 527.361 442.983 528.95 434.584 528.95C407.798 528.95 389.638 510.336 389.638 483.55C389.638 456.083 407.798 438.15 435.038 438.15C450.247 438.15 462.732 443.825 473.628 455.856L502.23 429.978C486.567 411.137 462.505 400.922 432.768 400.922C381.239 400.922 344.238 435.199 344.238 483.55C344.238 531.901 381.239 566.178 431.86 566.178C455.014 566.178 480.211 559.141 498.598 545.975V480.145H458.873V523.729Z" fill="#D16FFF"/>
<path d="M136.568 576.1V575.1H135.907L135.648 575.709L136.568 576.1ZM92.53 679.612L91.6069 679.997L92.5204 682.189L93.4502 680.003L92.53 679.612ZM49.4 576.1L50.3231 575.715L50.0667 575.1H49.4V576.1ZM0.822 576.1V575.1H-0.692549L-0.0976201 576.493L0.822 576.1ZM68.695 735L67.7754 735.393L68.0347 736H68.695V735ZM112.96 735V736H113.619L113.879 735.394L112.96 735ZM181.06 576.1L181.979 576.494L182.577 575.1H181.06V576.1ZM135.648 575.709L91.6098 679.221L93.4502 680.003L137.488 576.491L135.648 575.709ZM93.4531 679.227L50.3231 575.715L48.4769 576.485L91.6069 679.997L93.4531 679.227ZM49.4 575.1H0.822V577.1H49.4V575.1ZM-0.0976201 576.493L67.7754 735.393L69.6146 734.607L1.74162 575.707L-0.0976201 576.493ZM68.695 736H112.96V734H68.695V736ZM113.879 735.394L181.979 576.494L180.141 575.706L112.041 734.606L113.879 735.394ZM181.06 575.1H136.568V577.1H181.06V575.1ZM335.695 708.214L336.476 708.839L337.064 708.104L336.366 707.472L335.695 708.214ZM307.093 682.336L307.764 681.594L306.99 680.894L306.323 681.697L307.093 682.336ZM307.093 628.764L306.323 629.403L306.99 630.206L307.764 629.506L307.093 628.764ZM335.695 602.886L336.366 603.628L337.064 602.996L336.476 602.261L335.695 602.886ZM267.368 739.178C296.906 739.178 320.822 728.406 336.476 708.839L334.914 707.589C319.696 726.612 296.396 737.178 267.368 737.178V739.178ZM336.366 707.472L307.764 681.594L306.422 683.078L335.024 708.956L336.366 707.472ZM306.323 681.697C296.496 693.535 284.506 699.95 269.638 699.95V701.95C285.187 701.95 297.714 695.199 307.862 682.975L306.323 681.697ZM269.638 699.95C256.824 699.95 246.025 695.498 238.429 687.764C230.833 680.03 226.373 668.943 226.373 655.55H224.373C224.373 669.397 228.992 681.01 237.003 689.166C245.014 697.322 256.347 701.95 269.638 701.95V699.95ZM226.373 655.55C226.373 642.157 230.833 631.07 238.429 623.336C246.025 615.602 256.824 611.15 269.638 611.15V609.15C256.347 609.15 245.014 613.778 237.003 621.934C228.992 630.09 224.373 641.703 224.373 655.55H226.373ZM269.638 611.15C284.506 611.15 296.496 617.565 306.323 629.403L307.862 628.125C297.714 615.901 285.187 609.15 269.638 609.15V611.15ZM307.764 629.506L336.366 603.628L335.024 602.144L306.422 628.022L307.764 629.506ZM336.476 602.261C320.822 582.693 296.906 571.922 267.368 571.922V573.922C296.396 573.922 319.696 584.488 334.914 603.511L336.476 602.261ZM267.368 571.922C216.481 571.922 178.973 606.589 178.973 655.55H180.973C180.973 607.809 217.467 573.922 267.368 573.922V571.922ZM178.973 655.55C178.973 704.511 216.481 739.178 267.368 739.178V737.178C217.467 737.178 180.973 703.291 180.973 655.55H178.973ZM458.873 695.729L459.288 696.638L459.873 696.371V695.729H458.873ZM473.628 627.856L472.886 628.527L473.557 629.268L474.298 628.598L473.628 627.856ZM502.23 601.978L502.9 602.72L503.612 602.076L502.999 601.339L502.23 601.978ZM498.598 717.975L499.18 718.788L499.598 718.489V717.975H498.598ZM498.598 652.145H499.598V651.145H498.598V652.145ZM458.873 652.145V651.145H457.873V652.145H458.873ZM458.457 694.82C450.65 698.388 442.848 699.95 434.584 699.95V701.95C443.117 701.95 451.205 700.334 459.288 696.638L458.457 694.82ZM434.584 699.95C421.429 699.95 410.459 695.384 402.778 687.593C395.096 679.8 390.638 668.712 390.638 655.55H388.638C388.638 669.174 393.259 680.786 401.354 688.997C409.449 697.209 420.952 701.95 434.584 701.95V699.95ZM390.638 655.55C390.638 642.042 395.098 630.961 402.828 623.258C410.559 615.555 421.641 611.15 435.038 611.15V609.15C421.194 609.15 409.576 613.711 401.417 621.842C393.257 629.972 388.638 641.591 388.638 655.55H390.638ZM435.038 611.15C449.947 611.15 462.168 616.693 472.886 628.527L474.369 627.185C463.295 614.957 450.546 609.15 435.038 609.15V611.15ZM474.298 628.598L502.9 602.72L501.559 601.236L472.957 627.114L474.298 628.598ZM502.999 601.339C487.109 582.225 462.739 571.922 432.768 571.922V573.922C462.27 573.922 486.025 584.049 501.461 602.617L502.999 601.339ZM432.768 571.922C380.754 571.922 343.238 606.581 343.238 655.55H345.238C345.238 607.817 381.723 573.922 432.768 573.922V571.922ZM343.238 655.55C343.238 704.513 380.747 739.178 431.86 739.178V737.178C381.73 737.178 345.238 703.289 345.238 655.55H343.238ZM431.86 739.178C455.19 739.178 480.598 732.093 499.18 718.788L498.015 717.162C479.823 730.189 454.838 737.178 431.86 737.178V739.178ZM499.598 717.975V652.145H497.598V717.975H499.598ZM498.598 651.145H458.873V653.145H498.598V651.145ZM457.873 652.145V695.729H459.873V652.145H457.873Z" fill="#D16EFF"/>
<path d="M136.568 234.1V233.1H135.907L135.648 233.709L136.568 234.1ZM92.53 337.612L91.6069 337.997L92.5204 340.189L93.4502 338.003L92.53 337.612ZM49.4 234.1L50.3231 233.715L50.0667 233.1H49.4V234.1ZM0.822 234.1V233.1H-0.692549L-0.0976201 234.493L0.822 234.1ZM68.695 393L67.7754 393.393L68.0347 394H68.695V393ZM112.96 393V394H113.619L113.879 393.394L112.96 393ZM181.06 234.1L181.979 234.494L182.577 233.1H181.06V234.1ZM135.648 233.709L91.6098 337.221L93.4502 338.003L137.488 234.491L135.648 233.709ZM93.4531 337.227L50.3231 233.715L48.4769 234.485L91.6069 337.997L93.4531 337.227ZM49.4 233.1H0.822V235.1H49.4V233.1ZM-0.0976201 234.493L67.7754 393.393L69.6146 392.607L1.74162 233.707L-0.0976201 234.493ZM68.695 394H112.96V392H68.695V394ZM113.879 393.394L181.979 234.494L180.141 233.706L112.041 392.606L113.879 393.394ZM181.06 233.1H136.568V235.1H181.06V233.1ZM335.695 366.214L336.476 366.839L337.064 366.104L336.366 365.472L335.695 366.214ZM307.093 340.336L307.764 339.594L306.99 338.894L306.323 339.697L307.093 340.336ZM307.093 286.764L306.323 287.403L306.99 288.206L307.764 287.506L307.093 286.764ZM335.695 260.886L336.366 261.628L337.064 260.996L336.476 260.261L335.695 260.886ZM267.368 397.178C296.906 397.178 320.822 386.406 336.476 366.839L334.914 365.589C319.696 384.612 296.396 395.178 267.368 395.178V397.178ZM336.366 365.472L307.764 339.594L306.422 341.078L335.024 366.956L336.366 365.472ZM306.323 339.697C296.496 351.535 284.506 357.95 269.638 357.95V359.95C285.187 359.95 297.714 353.199 307.862 340.975L306.323 339.697ZM269.638 357.95C256.824 357.95 246.025 353.498 238.429 345.764C230.833 338.03 226.373 326.943 226.373 313.55H224.373C224.373 327.397 228.992 339.01 237.003 347.166C245.014 355.322 256.347 359.95 269.638 359.95V357.95ZM226.373 313.55C226.373 300.157 230.833 289.07 238.429 281.336C246.025 273.602 256.824 269.15 269.638 269.15V267.15C256.347 267.15 245.014 271.778 237.003 279.934C228.992 288.09 224.373 299.703 224.373 313.55H226.373ZM269.638 269.15C284.506 269.15 296.496 275.565 306.323 287.403L307.862 286.125C297.714 273.901 285.187 267.15 269.638 267.15V269.15ZM307.764 287.506L336.366 261.628L335.024 260.144L306.422 286.022L307.764 287.506ZM336.476 260.261C320.822 240.693 296.906 229.922 267.368 229.922V231.922C296.396 231.922 319.696 242.488 334.914 261.511L336.476 260.261ZM267.368 229.922C216.481 229.922 178.973 264.589 178.973 313.55H180.973C180.973 265.809 217.467 231.922 267.368 231.922V229.922ZM178.973 313.55C178.973 362.511 216.481 397.178 267.368 397.178V395.178C217.467 395.178 180.973 361.291 180.973 313.55H178.973ZM458.873 353.729L459.288 354.638L459.873 354.371V353.729H458.873ZM473.628 285.856L472.886 286.527L473.557 287.268L474.298 286.598L473.628 285.856ZM502.23 259.978L502.9 260.72L503.612 260.076L502.999 259.339L502.23 259.978ZM498.598 375.975L499.18 376.788L499.598 376.489V375.975H498.598ZM498.598 310.145H499.598V309.145H498.598V310.145ZM458.873 310.145V309.145H457.873V310.145H458.873ZM458.457 352.82C450.65 356.388 442.848 357.95 434.584 357.95V359.95C443.117 359.95 451.205 358.334 459.288 354.638L458.457 352.82ZM434.584 357.95C421.429 357.95 410.459 353.384 402.778 345.593C395.096 337.8 390.638 326.712 390.638 313.55H388.638C388.638 327.174 393.259 338.786 401.354 346.997C409.449 355.209 420.952 359.95 434.584 359.95V357.95ZM390.638 313.55C390.638 300.042 395.098 288.961 402.828 281.258C410.559 273.555 421.641 269.15 435.038 269.15V267.15C421.194 267.15 409.576 271.711 401.417 279.842C393.257 287.972 388.638 299.591 388.638 313.55H390.638ZM435.038 269.15C449.947 269.15 462.168 274.693 472.886 286.527L474.369 285.185C463.295 272.957 450.546 267.15 435.038 267.15V269.15ZM474.298 286.598L502.9 260.72L501.559 259.236L472.957 285.114L474.298 286.598ZM502.999 259.339C487.109 240.225 462.739 229.922 432.768 229.922V231.922C462.27 231.922 486.025 242.049 501.461 260.617L502.999 259.339ZM432.768 229.922C380.754 229.922 343.238 264.581 343.238 313.55H345.238C345.238 265.817 381.723 231.922 432.768 231.922V229.922ZM343.238 313.55C343.238 362.513 380.747 397.178 431.86 397.178V395.178C381.73 395.178 345.238 361.289 345.238 313.55H343.238ZM431.86 397.178C455.19 397.178 480.598 390.093 499.18 376.788L498.015 375.162C479.823 388.189 454.838 395.178 431.86 395.178V397.178ZM499.598 375.975V310.145H497.598V375.975H499.598ZM498.598 309.145H458.873V311.145H498.598V309.145ZM457.873 310.145V353.729H459.873V310.145H457.873Z" fill="#D16EFF"/>
<path d="M136.568 61.1V60.1H135.907L135.648 60.7085L136.568 61.1ZM92.53 164.612L91.6069 164.997L92.5204 167.189L93.4502 165.003L92.53 164.612ZM49.4 61.1L50.3231 60.7154L50.0667 60.1H49.4V61.1ZM0.822 61.1V60.1H-0.692549L-0.0976201 61.4928L0.822 61.1ZM68.695 220L67.7754 220.393L68.0347 221H68.695V220ZM112.96 220V221H113.619L113.879 220.394L112.96 220ZM181.06 61.1L181.979 61.4939L182.577 60.1H181.06V61.1ZM135.648 60.7085L91.6098 164.221L93.4502 165.003L137.488 61.4915L135.648 60.7085ZM93.4531 164.227L50.3231 60.7154L48.4769 61.4846L91.6069 164.997L93.4531 164.227ZM49.4 60.1H0.822V62.1H49.4V60.1ZM-0.0976201 61.4928L67.7754 220.393L69.6146 219.607L1.74162 60.7072L-0.0976201 61.4928ZM68.695 221H112.96V219H68.695V221ZM113.879 220.394L181.979 61.4939L180.141 60.7061L112.041 219.606L113.879 220.394ZM181.06 60.1H136.568V62.1H181.06V60.1ZM335.695 193.214L336.476 193.839L337.064 193.104L336.366 192.472L335.695 193.214ZM307.093 167.336L307.764 166.594L306.99 165.894L306.323 166.697L307.093 167.336ZM307.093 113.764L306.323 114.403L306.99 115.206L307.764 114.506L307.093 113.764ZM335.695 87.886L336.366 88.6275L337.064 87.9962L336.476 87.2613L335.695 87.886ZM267.368 224.178C296.906 224.178 320.822 213.406 336.476 193.839L334.914 192.589C319.696 211.612 296.396 222.178 267.368 222.178V224.178ZM336.366 192.472L307.764 166.594L306.422 168.078L335.024 193.956L336.366 192.472ZM306.323 166.697C296.496 178.535 284.506 184.95 269.638 184.95V186.95C285.187 186.95 297.714 180.199 307.862 167.975L306.323 166.697ZM269.638 184.95C256.824 184.95 246.025 180.498 238.429 172.764C230.833 165.03 226.373 153.943 226.373 140.55H224.373C224.373 154.397 228.992 166.01 237.003 174.166C245.014 182.322 256.347 186.95 269.638 186.95V184.95ZM226.373 140.55C226.373 127.157 230.833 116.07 238.429 108.336C246.025 100.602 256.824 96.15 269.638 96.15V94.15C256.347 94.15 245.014 98.7776 237.003 106.934C228.992 115.09 224.373 126.703 224.373 140.55H226.373ZM269.638 96.15C284.506 96.15 296.496 102.565 306.323 114.403L307.862 113.125C297.714 100.901 285.187 94.15 269.638 94.15V96.15ZM307.764 114.506L336.366 88.6275L335.024 87.1445L306.422 113.022L307.764 114.506ZM336.476 87.2613C320.822 67.6935 296.906 56.922 267.368 56.922V58.922C296.396 58.922 319.696 69.4885 334.914 88.5107L336.476 87.2613ZM267.368 56.922C216.481 56.922 178.973 91.5891 178.973 140.55H180.973C180.973 92.8089 217.467 58.922 267.368 58.922V56.922ZM178.973 140.55C178.973 189.511 216.481 224.178 267.368 224.178V222.178C217.467 222.178 180.973 188.291 180.973 140.55H178.973ZM458.873 180.729L459.288 181.638L459.873 181.371V180.729H458.873ZM473.628 112.856L472.886 113.527L473.557 114.268L474.298 113.598L473.628 112.856ZM502.23 86.978L502.9 87.7195L503.612 87.0761L502.999 86.3387L502.23 86.978ZM498.598 202.975L499.18 203.788L499.598 203.489V202.975H498.598ZM498.598 137.145H499.598V136.145H498.598V137.145ZM458.873 137.145V136.145H457.873V137.145H458.873ZM458.457 179.82C450.65 183.388 442.848 184.95 434.584 184.95V186.95C443.117 186.95 451.205 185.334 459.288 181.638L458.457 179.82ZM434.584 184.95C421.429 184.95 410.459 180.384 402.778 172.593C395.096 164.8 390.638 153.712 390.638 140.55H388.638C388.638 154.174 393.259 165.786 401.354 173.997C409.449 182.209 420.952 186.95 434.584 186.95V184.95ZM390.638 140.55C390.638 127.042 395.098 115.961 402.828 108.258C410.559 100.555 421.641 96.15 435.038 96.15V94.15C421.194 94.15 409.576 98.7111 401.417 106.842C393.257 114.972 388.638 126.591 388.638 140.55H390.638ZM435.038 96.15C449.947 96.15 462.168 101.693 472.886 113.527L474.369 112.185C463.295 99.9574 450.546 94.15 435.038 94.15V96.15ZM474.298 113.598L502.9 87.7195L501.559 86.2365L472.957 112.114L474.298 113.598ZM502.999 86.3387C487.109 67.2247 462.739 56.922 432.768 56.922V58.922C462.27 58.922 486.025 69.0493 501.461 87.6173L502.999 86.3387ZM432.768 56.922C380.754 56.922 343.238 91.5809 343.238 140.55H345.238C345.238 92.8171 381.723 58.922 432.768 58.922V56.922ZM343.238 140.55C343.238 189.513 380.747 224.178 431.86 224.178V222.178C381.73 222.178 345.238 188.289 345.238 140.55H343.238ZM431.86 224.178C455.19 224.178 480.598 217.093 499.18 203.788L498.015 202.162C479.823 215.189 454.838 222.178 431.86 222.178V224.178ZM499.598 202.975V137.145H497.598V202.975H499.598ZM498.598 136.145H458.873V138.145H498.598V136.145ZM457.873 137.145V180.729H459.873V137.145H457.873Z" fill="#D16EFF"/>
</svg>
