<svg width="1051" height="704" viewBox="0 0 1051 704" fill="none" xmlns="http://www.w3.org/2000/svg">
<path d="M790.483 461.631L788.045 467.337L785.513 473L782.887 478.619L780.168 484.19L777.359 489.712L774.459 495.183L771.47 500.599L768.393 505.959L765.23 511.26L761.982 516.5L758.65 521.677L755.235 526.788L751.738 531.832L748.162 536.806L744.508 541.709L740.776 546.537L736.969 551.289L733.088 555.963L729.134 560.557L725.109 565.069L721.015 569.496L716.852 573.838L712.624 578.091L708.331 582.255L703.975 586.327L699.558 590.306L695.081 594.19L690.546 597.976L685.955 601.665L681.309 605.253L676.611 608.739L671.862 612.122L667.063 615.4L662.218 618.572L657.327 621.637L652.392 624.592L647.416 627.437L642.399 630.17L637.345 632.79L632.254 635.296L627.129 637.687L621.972 639.961L616.784 642.117L611.568 644.156L606.325 646.074L601.057 647.873L595.767 649.55L590.456 651.105L585.126 652.537L579.779 653.846L574.418 655.03L569.043 656.09L563.657 657.024L558.263 657.832L552.861 658.514L547.454 659.069L542.044 659.497L536.633 659.798L531.223 659.971L525.816 660.016L520.413 659.933L515.017 659.722L509.629 659.383L504.252 658.916L498.888 658.32L493.538 657.597L488.204 656.746L482.889 655.767L477.594 654.661L472.321 653.429L467.071 652.07L461.848 650.584L456.652 648.974L451.486 647.238L446.351 645.378L441.249 643.394L436.183 641.287L431.153 639.058L426.161 636.707L421.21 634.236L416.301 631.645L411.436 628.935L406.616 626.108L401.844 623.164L397.12 620.104L392.447 616.931L387.826 613.644L383.259 610.245L378.747 606.736L374.292 603.117L369.895 599.391L365.559 595.558L361.284 591.621L357.073 587.581L352.925 583.438L348.844 579.196L344.83 574.855L340.884 570.418L337.009 565.886L333.205 561.26L329.474 556.544L325.816 551.738L322.234 546.845L318.729 541.866L315.301 536.804L311.951 531.66L308.682 526.437L305.494 521.137L302.388 515.761L299.365 510.313L296.426 504.794L293.573 499.206L290.805 493.553L288.125 487.835L285.533 482.056L283.029 476.217L280.615 470.322L278.292 464.372L276.059 458.371L273.919 452.319L271.871 446.221L269.917 440.078L268.057 433.893L266.291 427.669L264.62 421.408L263.045 415.112L261.566 408.785L260.183 402.428L258.898 396.045L257.71 389.639L256.619 383.211L255.627 376.764L254.733 370.302L253.938 363.826L253.242 357.34L252.644 350.847L252.146 344.348L251.748 337.847L251.448 331.346L251.248 324.848L251.148 318.356L251.147 311.872L251.245 305.4L251.443 298.942L251.74 292.5L252.135 286.078L252.63 279.677L253.223 273.302L253.914 266.954L254.704 260.635L255.591 254.35L256.575 248.1L257.656 241.888L258.834 235.717L260.108 229.589L261.477 223.507L262.941 217.474L264.5 211.491L266.152 205.562L267.897 199.689L269.735 193.875L271.665 188.122L273.686 182.432L275.797 176.808L277.998 171.253L280.287 165.768L282.664 160.357L285.128 155.021L287.678 149.762L290.314 144.583L293.033 139.487L295.836 134.475L298.72 129.55L301.686 124.713L304.732 119.967L307.856 115.313L311.058 110.755L314.337 106.293L317.691 101.93L321.12 97.6682L324.621 93.5084L328.194 89.453L331.837 85.5037L335.549 81.6622L339.329 77.9302L343.175 74.3094L347.086 70.8014L351.061 67.4076L355.098 64.1297L359.195 60.9691L363.352 57.9272L367.566 55.0053L371.837 52.2048L376.162 49.5269L380.54 46.9729L384.97 44.5438L389.45 42.2409L393.978 40.0651L398.553 38.0175L403.173 36.099L407.836 34.3106L412.541 32.653L417.287 31.127L422.071 29.7335L426.891 28.473L431.747 27.3462L436.636 26.3536L441.556 25.4958L446.506 24.7733L451.485 24.1863L456.489 23.7353L461.518 23.4206L466.57 23.2424L471.643 23.2008L476.734 23.2959L481.843 23.5279L486.968 23.8967L492.106 24.4024L497.256 25.0445L502.416 25.8233L507.584 26.7382L512.759 27.7891L517.938 28.9756L523.12 30.2973L528.303 31.7537L533.484 33.3444L538.663 35.0687L543.837 36.926L549.005 38.9157L554.164 41.0369L559.313 43.289L564.45 45.671L569.574 48.1819L574.681 50.821L579.772 53.5871L584.843 56.4791L589.892 59.496L594.919 62.6366L599.922 65.8995L604.898 69.2836L609.846 72.7875L614.763 76.4098L619.65 80.1491L624.502 84.0038L629.32 87.9724L634.1 92.0535L638.843 96.2452L643.544 100.546L648.204 104.954L652.82 109.467L657.391 114.085L661.916 118.804L666.391 123.623L670.817 128.539L675.191 133.552L679.511 138.659L683.777 143.857L687.986 149.146L692.138 154.521L696.23 159.982L700.262 165.527L704.231 171.152L708.137 176.855L711.977 182.635L715.751 188.488L719.458 194.413L723.095 200.407L726.661 206.467L730.156 212.592L733.578 218.777L736.926 225.022L740.198 231.323L743.393 237.677L746.511 244.083L749.55 250.537L752.508 257.037L755.386 263.579L758.181 270.162L760.893 276.783L763.521 283.438L766.063 290.126L768.52 296.842L770.889 303.585L773.17 310.352L775.363 317.139L777.466 323.945L779.478 330.765L781.4 337.598L783.23 344.44L784.966 351.289L786.61 358.141L788.16 364.995L789.616 371.846L790.976 378.692L792.241 385.53L793.41 392.357L794.482 399.171L795.457 405.969L796.335 412.747L797.115 419.503L797.798 426.233L798.381 432.936L798.867 439.609L799.253 446.247L799.54 452.85L799.728 459.413L799.817 465.934L799.806 472.411L799.696 478.84L799.487 485.219L799.178 491.545L798.769 497.816L798.261 504.028L797.654 510.18L796.948 516.268L796.143 522.29L795.24 528.243L794.238 534.126L793.137 539.934L791.939 545.667L790.644 551.321L789.252 556.893L787.763 562.383L786.178 567.787L784.497 573.102L782.721 578.327L780.851 583.46L778.887 588.498L776.829 593.439L774.679 598.281L772.437 603.021L770.104 607.659L767.68 612.191L765.167 616.616L762.565 620.932L759.875 625.137L757.098 629.229L754.235 633.206L751.286 637.067L748.254 640.811L745.139 644.435L741.941 647.937L738.663 651.317L735.304 654.572L731.867 657.702L728.352 660.705L724.761 663.58L721.095 666.325L717.355 668.939L713.542 671.421L709.658 673.77L705.704 675.985L701.682 678.064L697.592 680.008L693.436 681.815L689.216 683.484L684.933 685.014L680.589 686.405L676.184 687.656L671.722 688.767L667.202 689.736L662.627 690.564L657.999 691.251L653.319 691.794L648.588 692.196L643.808 692.454L638.981 692.57L634.109 692.542L629.194 692.371L624.236 692.057L619.238 691.6L614.202 691L609.129 690.258L604.022 689.372L598.881 688.345L593.709 687.176L588.508 685.865L583.279 684.413L578.025 682.822L572.746 681.09L567.446 679.219L562.126 677.21L556.788 675.063L551.434 672.78L546.065 670.36L540.684 667.806L535.293 665.118L529.893 662.297L524.487 659.345L519.076 656.262L513.663 653.05L508.249 649.71L502.837 646.243L497.427 642.651L492.023 638.936L486.627 635.098L481.239 631.14L475.863 627.063L470.5 622.868L465.152 618.558L459.821 614.134L454.509 609.598L449.218 604.951L443.95 600.197L438.706 595.336L433.49 590.371L428.302 585.303L423.145 580.136L418.021 574.87L412.931 569.509L407.878 564.054L402.863 558.507L397.888 552.872L392.955 547.15L388.065 541.343L383.222 535.455L378.426 529.487L373.679 523.442L368.984 517.323L364.341 511.131L359.753 504.871L355.222 498.543L350.748 492.152L346.335 485.699L341.983 479.187L337.694 472.62L333.47 465.999L329.313 459.327L325.223 452.608L321.203 445.844L317.255 439.038L313.379 432.192L309.578 425.31L305.852 418.395L302.204 411.45L298.634 404.476L295.144 397.478L291.736 390.458L288.41 383.419L285.169 376.365L282.013 369.297L278.944 362.22L275.963 355.135L273.071 348.047L270.27 340.957L267.56 333.87L264.942 326.787L262.419 319.713L259.99 312.649L257.657 305.6L255.421 298.567L253.282 291.554L251.242 284.564L249.302 277.6L247.462 270.665L245.723 263.761L244.087 256.891L242.553 250.06L241.122 243.268L239.796 236.52L238.574 229.818L237.458 223.164L236.448 216.563L235.544 210.016L234.747 203.527L234.058 197.097L233.476 190.73L233.002 184.429L232.637 178.196L232.381 172.034L232.233 165.945L232.195 159.932L232.267 153.998L232.447 148.145L232.738 142.375L233.138 136.692L233.648 131.097L234.267 125.593L234.996 120.182L235.834 114.866L236.782 109.648L237.839 104.531L239.005 99.5151L240.279 94.6038L241.662 89.799L243.152 85.1026L244.751 80.5166L246.456 76.0432L248.268 71.684L250.186 67.4411L252.209 63.3162L254.338 59.311L256.571 55.4275L258.907 51.667L261.347 48.0314L263.889 44.5222L266.532 41.1408L269.275 37.8888L272.119 34.7675L275.061 31.7782L278.101 28.9224L281.238 26.2011L284.47 23.6157L287.798 21.1671L291.219 18.8566L294.732 16.685L298.337 14.6533L302.032 12.7624L305.816 11.0132L309.688 9.40643L313.646 7.94276L317.689 6.62288L321.815 5.44735L326.024 4.41668L330.313 3.53141L334.682 2.79189L339.128 2.19845L343.65 1.75144L348.247 1.45101L352.917 1.29735L357.659 1.29053L362.469 1.43063L367.348 1.71756L372.294 2.1513L377.303 2.73164L382.376 3.45838L387.509 4.33126L392.701 5.34992L397.951 6.51398L403.256 7.82297L408.614 9.27634L414.024 10.8736L419.483 12.6139L424.99 14.4968L430.543 16.5213L436.139 18.6867L441.776 20.9921L447.453 23.4365L453.168 26.0191L458.917 28.7385L464.7 31.5938L470.514 34.5837L476.356 37.7071L482.225 40.9627L488.119 44.3489L494.035 47.8647L499.972 51.5083L505.926 55.2783L511.896 59.1731L517.88 63.1912L523.874 67.3308L529.878 71.5903L535.889 75.9678L541.903 80.4614L547.921 85.0695L553.938 89.7899L559.952 94.6208L565.962 99.5601L571.965 104.606L577.959 109.756L583.942 115.008L589.91 120.359L595.863 125.809L601.797 131.354L607.71 136.992L613.601 142.72L619.466 148.537L625.304 154.44L631.112 160.426L636.888 166.492L642.63 172.638L648.336 178.858L654.002 185.152L659.628 191.517L665.211 197.949L670.748 204.446L676.237 211.005L681.677 217.624L687.065 224.3L692.399 231.03L697.677 237.811L702.897 244.641L708.056 251.515L713.153 258.433L718.186 265.39L723.152 272.383L728.05 279.41L732.877 286.468L737.631 293.554L742.312 300.665L746.916 307.798L751.442 314.949L755.888 322.116L760.252 329.296L764.532 336.486L768.727 343.682L772.834 350.883L776.853 358.083L780.781 365.282L784.617 372.475L788.359 379.659L792.006 386.832L795.555 393.991L799.006 401.132L802.357 408.253L805.606 415.35L808.753 422.42L811.795 429.461L814.731 436.469L817.561 443.442L820.282 450.377L822.893 457.27L825.395 464.119L827.784 470.921L830.06 477.673L832.223 484.372L834.27 491.015L836.202 497.6L838.016 504.124L839.713 510.583L841.291 516.976L842.75 523.3L844.088 529.551L845.305 535.728L846.401 541.827L847.375 547.846L848.225 553.783L848.953 559.635L849.556 565.399L850.035 571.073L850.389 576.655L850.619 582.143L850.723 587.533L850.701 592.825L850.553 598.015L850.28 603.101L849.88 608.081L849.355 612.953L848.703 617.716L847.925 622.366L847.021 626.903L845.991 631.323L844.835 635.626L843.554 639.81L842.148 643.871L840.617 647.81L838.961 651.625L837.181 655.313L835.278 658.873L833.252 662.304L831.103 665.604L828.832 668.771L826.441 671.805L823.928 674.705L821.296 677.468L818.546 680.094L815.677 682.582L812.691 684.93L809.589 687.139L806.372 689.205L803.041 691.13L799.597 692.912L796.041 694.55L792.375 696.043L788.599 697.392L784.715 698.595L780.724 699.652L776.628 700.562L772.428 701.325L768.126 701.941L763.722 702.41L759.219 702.731L754.618 702.904L749.921 702.929L745.129 702.807L740.245 702.536L735.269 702.118L730.204 701.552L725.051 700.839L719.813 699.979L714.491 698.972L709.087 697.819L703.603 696.521L698.042 695.077L692.405 693.489L686.694 691.757L680.911 689.882L675.059 687.864L669.14 685.705L663.155 683.406L657.108 680.967L651 678.389L644.834 675.674L638.611 672.823L632.335 669.837L626.008 666.716L619.632 663.464L613.21 660.08L606.743 656.567L600.235 652.925L593.688 649.157L587.104 645.264L580.486 641.248L573.836 637.11L567.158 632.851L560.453 628.475L553.724 623.983L546.974 619.376L540.206 614.657L533.422 609.827L526.624 604.89L519.815 599.846L512.999 594.697L506.177 589.447L499.352 584.097L492.528 578.65L485.706 573.107L478.89 567.472L472.081 561.746L465.283 555.933L458.499 550.034L451.731 544.051L444.982 537.989L438.254 531.848L431.551 525.632L424.874 519.344L418.227 512.985L411.613 506.559L405.033 500.068L398.491 493.516L391.989 486.904L385.53 480.236L379.116 473.514L372.75 466.742L366.435 459.922L360.174 453.057L353.968 446.15L347.82 439.204L341.734 432.222L335.71 425.207L329.753 418.161L323.864 411.088L318.046 403.991L312.301 396.872L306.631 389.735L301.04 382.583L295.529 375.419L290.1 368.245L284.756 361.065L279.5 353.882L274.333 346.699L269.257 339.519L264.276 332.344L259.39 325.179L254.602 318.025L249.914 310.886L245.328 303.766L240.847 296.666L236.471 289.59L232.203 282.541L228.045 275.522L223.999 268.536L220.066 261.586L216.248 254.674L212.547 247.804L208.964 240.978L205.502 234.2L202.161 227.472L198.944 220.797L195.851 214.178L192.884 207.618L190.045 201.119L187.335 194.684L184.755 188.316L182.307 182.017L179.991 175.791L177.809 169.639L175.761 163.564L173.85 157.57L172.075 151.658L170.438 145.83L168.939 140.09L167.581 134.44L166.362 128.882L165.284 123.418L164.348 118.05L163.554 112.782L162.903 107.615L162.395 102.551L162.031 97.592L161.811 92.7408L161.735 87.9991L161.804 83.3688L162.018 78.8518L162.376 74.4501L162.88 70.1654L163.529 65.9996L164.323 61.9544L165.262 58.0314L166.346 54.2324L167.574 50.5587L168.947 47.012L170.465 43.5938L172.125 40.3055L173.929 37.1483L175.876 34.1236L177.965 31.2326L180.196 28.4766L182.568 25.8567L185.08 23.3738L187.731 21.0291L190.521 18.8235L193.449 16.7579L196.514 14.8331L199.714 13.0499L203.049 11.409L206.518 9.91111L210.119 8.55673L213.851 7.34648L217.713 6.28081L221.704 5.36008L225.822 4.58469L230.065 3.95494L234.433 3.47099L238.923 3.13307L243.535 2.94128L248.265 2.89562L253.114 2.99611L258.078 3.24262L263.156 3.63507L268.347 4.17318L273.648 4.85674L279.057 5.68541L284.573 6.65877L290.193 7.7764L295.915 9.03777L301.738 10.4423L307.658 11.9894L313.674 13.6784L319.783 15.5084L325.983 17.4787L332.272 19.5885L338.648 21.8367L345.107 24.2224L351.648 26.7446L358.268 29.4021L364.964 32.1938L371.734 35.1184L378.576 38.1748L385.485 41.3615L392.461 44.6772L399.5 48.1205L406.6 51.6897L413.757 55.3836L420.969 59.2003L428.233 63.1384L435.546 67.196L442.906 71.3714L450.309 75.6629L457.753 80.0685L465.234 84.5865L472.75 89.2147L480.297 93.9514L487.874 98.7944L495.476 103.742L503.1 108.791L510.744 113.941L518.405 119.188L526.079 124.531L533.764 129.967L541.456 135.494L549.152 141.109L556.849 146.811L564.544 152.596L572.234 158.463L579.916 164.409L587.587 170.431L595.243 176.526L602.881 182.693L610.499 188.928L618.093 195.229L625.66 201.593L633.197 208.018L640.701 214.5L648.169 221.038L655.597 227.627L662.984 234.266L670.324 240.952L677.617 247.681L684.858 254.452L692.044 261.26L699.173 268.104L706.242 274.979L713.247 281.885L720.186 288.816L727.056 295.772L733.854 302.748L740.577 309.741L747.222 316.749L753.786 323.769L760.267 330.798L766.662 337.833L772.968 344.871L779.183 351.908L785.303 358.943L791.327 365.971L797.251 372.99L803.073 379.998L808.791 386.991L814.402 393.966L819.904 400.92L825.294 407.85L830.569 414.754L835.729 421.629L840.769 428.471L845.689 435.278L850.486 442.048L855.157 448.776L859.702 455.46L864.117 462.098L868.401 468.687L872.551 475.224L876.566 481.706L880.445 488.131L884.185 494.496L887.784 500.798L891.242 507.034L894.555 513.203L897.724 519.301L900.746 525.326L903.619 531.275L906.343 537.147L908.916 542.938L911.338 548.646L913.605 554.269L915.719 559.804L917.676 565.25L919.477 570.603L921.121 575.862L922.606 581.025L923.932 586.089L925.098 591.052L926.104 595.912L926.948 600.668L927.63 605.318L928.149 609.858L928.506 614.288L928.7 618.606L928.73 622.81L928.596 626.899L928.298 630.869L927.836 634.721L927.21 638.453L926.42 642.062L925.467 645.547L924.349 648.908L923.067 652.143L921.623 655.25L920.015 658.228L918.245 661.076L916.313 663.792L914.22 666.377L911.966 668.829L909.551 671.146L906.978 673.328L904.245 675.374L901.356 677.283L898.309 679.055L895.107 680.689L891.751 682.183L888.241 683.539L884.579 684.754L880.766 685.83L876.804 686.764L872.694 687.558L868.437 688.211L864.035 688.722L859.489 689.091L854.802 689.319L849.975 689.405L845.01 689.349L839.908 689.152L834.671 688.813L829.303 688.333L823.803 687.712L818.175 686.951L812.421 686.049L806.543 685.008L800.542 683.828L794.423 682.509L788.186 681.051L781.834 679.457L775.369 677.726L768.795 675.859L762.114 673.857L755.327 671.721L748.439 669.452L741.451 667.051L734.366 664.519L727.188 661.858L719.918 659.067L712.56 656.149L705.117 653.106L697.592 649.937L689.987 646.645L682.305 643.231L674.55 639.697L666.725 636.044L658.833 632.274L650.877 628.388L642.86 624.389L634.785 620.277L626.656 616.055L618.476 611.724L610.248 607.286L601.976 602.744L593.662 598.1L585.311 593.354L576.925 588.51L568.508 583.569L560.063 578.534L551.595 573.406L543.105 568.188L534.598 562.883L526.078 557.492L517.547 552.017L509.01 546.462L500.469 540.828L491.928 535.118L483.391 529.334L474.861 523.479L466.342 517.556L457.837 511.566L449.35 505.512L440.884 499.398L432.443 493.225L424.03 486.996L415.649 480.714L407.303 474.382L398.996 468.001L390.731 461.576L382.512 455.108L374.342 448.6L366.224 442.056L358.162 435.477L350.16 428.867L342.22 422.228L334.346 415.564L326.542 408.877L318.81 402.169L311.154 395.444L303.577 388.705L296.083 381.954L288.674 375.194L281.354 368.428L274.126 361.66L266.992 354.89L259.957 348.124L253.022 341.362L246.192 334.609L239.468 327.867L232.855 321.139L226.354 314.427L219.968 307.735L213.701 301.065L207.554 294.42L201.532 287.803L195.635 281.217L189.868 274.663L184.232 268.146L178.73 261.667L173.364 255.23L168.137 248.837L163.05 242.491L158.108 236.194L153.31 229.949L148.66 223.758L144.16 217.625L139.812 211.551L135.617 205.539L131.579 199.592L127.697 193.712L123.975 187.901L120.414 182.162L117.016 176.498L113.781 170.91L110.713 165.4L107.812 159.972L105.08 154.627L102.517 149.368L100.126 144.196L97.9069 139.113L95.8616 134.123L93.9908 129.226L92.2956 124.425L90.7768 119.722L89.4353 115.118L88.2718 110.616L87.287 106.217L86.4816 101.924L85.8561 97.7365L85.4108 93.6579L85.1463 89.6894L85.0629 85.8324L85.1607 82.0887L85.4399 78.4597L85.9007 74.9467L86.543 71.5512L87.3668 68.2746L88.372 65.118L89.5583 62.0828L90.9254 59.1701L92.473 56.3811L94.2007 53.7168L96.1079 51.1782L98.1941 48.7663L100.459 46.482L102.901 44.3263L105.519 42.2998L108.314 40.4034L111.283 38.6377L114.427 37.0034L117.743 35.501L121.23 34.1312L124.888 32.8943L128.715 31.7908L132.709 30.821L136.87 29.9852L141.195 29.2838L145.683 28.7168L150.332 28.2844L155.141 27.9868L160.108 27.8238L165.23 27.7955L170.506 27.9018L175.934 28.1425L181.512 28.5175L187.237 29.0264L193.108 29.669L199.122 30.4449L205.277 31.3536L211.57 32.3946L217.999 33.5675L224.561 34.8716L231.254 36.3063L238.076 37.8709L245.022 39.5646L252.092 41.3866L259.282 43.3361L266.588 45.4121L274.009 47.6136L281.541 49.9397L289.181 52.3893L296.927 54.9612L304.774 57.6543L312.72 60.4674L320.762 63.3992L328.897 66.4483L337.121 69.6133L345.43 72.893L353.822 76.2858L362.293 79.7902L370.84 83.4046L379.46 87.1275L388.147 90.9573L396.9 94.8921L405.715 98.9303L414.588 103.07L423.515 107.31L432.492 111.647L441.517 116.081L450.586 120.609L459.693 125.229L468.837 129.939L478.013 134.737L487.217 139.622L496.446 144.59L505.696 149.64L514.962 154.77L524.242 159.977L533.53 165.259L542.825 170.614L552.12 176.04L561.414 181.534L570.701 187.094L579.978 192.717L589.242 198.402L598.487 204.145L607.711 209.945L616.91 215.799L626.079 221.704L635.215 227.657L644.314 233.657L653.372 239.701L662.385 245.786L671.35 251.91L680.263 258.069L689.12 264.263L697.917 270.487L706.651 276.739L715.317 283.017L723.913 289.317L732.434 295.638L740.877 301.977L749.239 308.331L757.516 314.697L765.703 321.073L773.799 327.455L781.799 333.842L789.7 340.231L797.498 346.619L805.19 353.003L812.774 359.381L820.245 365.75L827.6 372.107L834.837 378.451L841.952 384.777L848.941 391.084L855.803 397.368L862.534 403.628L869.131 409.861L875.591 416.064L881.912 422.235L888.09 428.371L894.123 434.469L900.008 440.527L905.743 446.543L911.326 452.514L916.753 458.438L922.022 464.312L927.131 470.133L932.078 475.901L936.861 481.611L941.477 487.262L945.924 492.852L950.2 498.378L954.304 503.838L958.233 509.23L961.986 514.551L965.56 519.8L968.955 524.974L972.169 530.072L975.2 535.09L978.046 540.028L980.708 544.884L983.182 549.654L985.468 554.338L987.565 558.934L989.472 563.439L991.187 567.852L992.711 572.172L994.041 576.396L995.179 580.523L996.121 584.551L996.869 588.478L997.422 592.304L997.779 596.026L997.94 599.644L997.905 603.155L997.674 606.559L997.246 609.854L996.621 613.038L995.8 616.111L994.783 619.072L993.57 621.919L992.162 624.652L990.558 627.268L988.759 629.768L986.767 632.151L984.581 634.415L982.202 636.559L979.631 638.584L976.87 640.487L973.918 642.269L970.778 643.93L967.45 645.467L963.935 646.881L960.236 648.172L956.352 649.338L952.286 650.381L948.04 651.298L943.614 652.091L939.01 652.758L934.231 653.3L929.279 653.717L924.154 654.008L918.86 654.174L913.397 654.214L907.769 654.129L901.977 653.919L896.025 653.584L889.913 653.125L883.645 652.541L877.223 651.834L870.65 651.003L863.928 650.049L857.06 648.972L850.048 647.773L842.896 646.453L835.607 645.013L828.183 643.453L820.627 641.773L812.943 639.975L805.133 638.06L797.201 636.028L789.15 633.881L780.982 631.619L772.703 629.244L764.314 626.756L755.819 624.158L747.223 621.449L738.527 618.631L729.736 615.706L720.854 612.675L711.884 609.538L702.83 606.299L693.695 602.957L684.483 599.515L675.198 595.975L665.844 592.336L656.425 588.602L646.944 584.774L637.407 580.854L627.815 576.843L618.174 572.743L608.487 568.556L598.759 564.284L588.993 559.928L579.194 555.491L569.366 550.974L559.512 546.379L549.637 541.709L539.745 536.965L529.84 532.149L519.926 527.264L510.008 522.312L500.089 517.294L490.173 512.213L480.266 507.071L470.371 501.87L460.491 496.612L450.632 491.301L440.797 485.937L430.991 480.523L421.218 475.062L411.481 469.555L401.785 464.006L392.134 458.416L382.532 452.788L372.984 447.123L363.492 441.426L354.062 435.697L344.696 429.94L335.4 424.157L326.177 418.349L317.031 412.52L307.966 406.672L298.985 400.808L290.093 394.93L281.294 389.039L272.59 383.14L263.986 377.234L255.486 371.323L247.093 365.411L238.81 359.499L230.642 353.59L222.591 347.686L214.662 341.791L206.857 335.905L199.18 330.032L191.634 324.175L184.223 318.334L176.95 312.514L169.817 306.716L162.829 300.942L155.987 295.195L149.295 289.478L142.757 283.792L136.373 278.14L130.149 272.525L124.085 266.947L118.185 261.411L112.452 255.917L106.887 250.469L101.494 245.068L96.275 239.716L91.2318 234.416L86.3667 229.17L81.6821 223.98L77.18 218.847L72.8624 213.775L68.7312 208.765L64.7884 203.818L61.0356 198.938L57.4745 194.125L54.1069 189.382L50.9341 184.711L47.9578 180.113L45.1792 175.59L42.5996 171.145L40.2203 166.778L38.0423 162.492L36.0668 158.287L34.2946 154.167L32.7267 150.132L31.3637 146.183L30.2066 142.324L29.2557 138.554L28.5117 134.875L27.9749 131.289L27.6459 127.797L27.5248 124.401L27.6117 121.101L27.9069 117.899L28.4103 114.796L29.1217 111.793L30.0411 108.892L31.1682 106.093L32.5026 103.398L34.0439 100.807L35.7915 98.3209L37.7449 95.9415L39.9035 93.669L42.2662 91.5045L44.8323 89.4485L47.601 87.5019L50.571 85.6653L53.7413 83.9392L57.1106 82.3243L60.6778 80.8211L64.4413 79.43L68.3997 78.1515L72.5515 76.986L76.8951 75.9338L81.4286 74.9951L86.1504 74.1702L91.0586 73.4594L96.1511 72.8627L101.426 72.3802L106.881 72.0122L112.514 71.7583L118.324 71.6187L124.306 71.5932L130.46 71.6818L136.782 71.8843L143.27 72.2003L149.921 72.6297L156.733 73.1721L163.703 73.8271L170.828 74.5943L178.106 75.4733L185.532 76.4636L193.104 77.5645L200.82 78.7756L208.675 80.0961L216.667 81.5254L224.793 83.0628L233.048 84.7074L241.43 86.4585L249.935 88.3152L258.56 90.2766L267.301 92.3418L276.154 94.5097L285.117 96.7795L294.184 99.1499L303.352 101.62L312.619 104.188L321.979 106.854L331.428 109.616L340.964 112.472L350.582 115.423L360.277 118.465L370.047 121.598L379.886 124.82L389.791 128.131L399.757 131.528L409.782 135.01L419.859 138.575L429.985 142.222L440.156 145.95L450.368 149.756L460.616 153.639L470.896 157.597L481.204 161.629L491.535 165.733L501.885 169.907L512.25 174.149L522.626 178.458L533.007 182.831L543.39 187.267L553.77 191.764L564.143 196.32L574.505 200.933L584.85 205.601L595.176 210.321L605.477 215.093L615.749 219.914L625.988 224.782L636.19 229.695L646.349 234.651L656.463 239.647L666.526 244.682L676.534 249.754L686.484 254.861L696.37 260L706.189 265.169L715.937 270.366L725.609 275.589L735.201 280.836L744.71 286.104L754.131 291.392L763.46 296.697L772.693 302.017L781.826 307.35L790.856 312.694L799.779 318.047L808.59 323.405L817.286 328.768L825.864 334.133L834.319 339.498L842.649 344.86L850.848 350.218L858.915 355.569L866.845 360.911L874.636 366.242L882.283 371.56L889.783 376.862L897.134 382.147L904.332 387.412L911.375 392.656L918.258 397.876L924.979 403.07L931.535 408.236L937.924 413.372L944.142 418.476L950.187 423.546L956.056 428.58L961.747 433.576L967.257 438.531L972.585 443.445L977.726 448.315L982.68 453.139L987.444 457.916L992.016 462.642L996.395 467.318L1000.58 471.94L1004.56 476.507L1008.35 481.017L1011.93 485.469L1015.31 489.861L1018.49 494.19L1021.46 498.457L1024.23 502.657L1026.78 506.791L1029.13 510.857L1031.27 514.853L1033.19 518.777L1034.9 522.628L1036.4 526.405L1037.69 530.106L1038.76 533.73L1039.62 537.275L1040.26 540.741L1040.68 544.125L1040.89 547.427L1040.89 550.645L1040.66 553.779L1040.22 556.827L1039.57 559.787L1038.7 562.66L1037.61 565.444L1036.31 568.137L1034.79 570.74L1033.06 573.25L1031.12 575.668L1028.96 577.992L1026.59 580.221L1024.01 582.356L1021.22 584.394L1018.22 586.336L1015.01 588.18L1011.6 589.927L1007.98 591.575L1004.15 593.125L1000.13 594.575L995.904 595.925L991.48 597.175L986.859 598.325L982.043 599.373L977.034 600.321L971.834 601.167L966.445 601.912L960.869 602.555L955.109 603.096L949.166 603.535L943.044 603.873L936.745 604.108L930.271 604.242L923.626 604.274L916.811 604.205L909.83 604.034L902.686 603.762L895.381 603.389L887.919 602.916L880.303 602.342L872.535 601.669L864.62 600.896L856.559 600.025L848.358 599.055L840.019 597.986L831.545 596.821L822.941 595.559L814.209 594.201L805.354 592.748L796.379 591.2L787.287 589.558L778.083 587.823L768.771 585.996L759.354 584.078L749.836 582.069L740.222 579.971L730.515 577.784L720.719 575.51L710.839 573.15L700.879 570.704L690.842 568.174L680.733 565.561L670.557 562.866L660.316 560.09L650.017 557.235L639.663 554.302L629.258 551.291L618.808 548.206L608.315 545.046L597.785 541.813L587.223 538.509L576.632 535.135L566.016 531.692L555.382 528.182L544.732 524.607L534.071 520.968L523.405 517.266L512.737 513.504L502.072 509.682L491.414 505.803L480.768 501.867L470.139 497.878L459.53 493.835L448.947 489.742L438.393 485.599L427.874 481.409L417.393 477.174L406.956 472.894L396.566 468.572L386.228 464.209L375.947 459.808L365.726 455.37L355.57 450.897L345.483 446.391L335.47 441.854L325.535 437.287L315.681 432.693L305.914 428.073L296.237 423.429L286.654 418.763L277.17 414.077L267.788 409.373L258.513 404.652L249.348 399.918L240.297 395.171L231.365 390.413L222.554 385.647L213.869 380.874L205.313 376.096L196.89 371.315L188.603 366.533L180.457 361.753L172.454 356.975L164.598 352.201L156.892 347.434L149.34 342.676L141.944 337.928L134.709 333.192L127.636 328.47L120.729 323.765L113.991 319.076L107.425 314.408L101.033 309.761L94.819 305.137L88.7846 300.538L82.9327 295.965L77.2657 291.422L71.7862 286.908L66.4965 282.427L61.3988 277.979L56.4954 273.567L51.7882 269.192L47.2793 264.855L42.9706 260.56L38.8641 256.306L34.9614 252.096L31.2643 247.931L27.7742 243.813L24.4929 239.743L21.4215 235.724L18.5615 231.755L15.9141 227.84L13.4804 223.979L11.2616 220.174L9.25847 216.426L7.47202 212.737L5.90298 209.107L4.55206 205.539L3.41987 202.034L2.50686 198.592L1.81346 195.216L1.34003 191.906L1.08677 188.663L1.0538 185.489L1.24121 182.385L1.64889 179.352L2.2767 176.391L3.12444 173.503L4.19178 170.689L5.47822 167.95L6.98336 165.287L8.70644 162.701L10.6469 160.193L12.8038 157.764L15.1764 155.414L17.7637 153.144L20.5645 150.956L23.5778 148.849L26.8022 146.824L30.2365 144.883L33.8791 143.026L37.7287 141.252L41.7836 139.564L46.0421 137.961L50.5024 136.444L55.1625 135.013L60.0208 133.669L65.075 132.413L70.3231 131.243L75.7628 130.162L81.3919 129.168L87.2081 128.263L93.2088 127.446L99.3916 126.718L105.754 126.079L112.293 125.529L119.006 125.068L125.89 124.695L132.943 124.412L140.161 124.218L147.542 124.112L155.081 124.096L162.777 124.168L170.626 124.328L178.624 124.577L186.768 124.914L195.055 125.338L203.481 125.85L212.043 126.449L220.737 127.134L229.56 127.906L238.507 128.764L247.575 129.707L256.761 130.735L266.059 131.847L275.467 133.042L284.981 134.321L294.596 135.683L304.308 137.126L314.113 138.65L324.007 140.255L333.987 141.939L344.047 143.702L354.184 145.543L364.392 147.461L374.669 149.455L385.01 151.525L395.409 153.669L405.863 155.886L416.368 158.176L426.919 160.538L437.511 162.97L448.141 165.471L458.803 168.041L469.493 170.677L480.206 173.38L490.939 176.148L501.687 178.979L512.444 181.873L523.207 184.827L533.97 187.842L544.731 190.916L555.483 194.047L566.222 197.234L576.944 200.476L587.644 203.772L598.318 207.119L608.962 210.517L619.57 213.965L630.139 217.46L640.663 221.002L651.139 224.589L661.561 228.219L671.926 231.892L682.23 235.605L692.467 239.357L702.634 243.146L712.726 246.972L722.74 250.832L732.67 254.725L742.512 258.649L752.264 262.603L761.919 266.586L771.475 270.595L780.927 274.629L790.271 278.686L799.504 282.766L808.621 286.865L817.618 290.984L826.493 295.119L835.241 299.27L843.857 303.434L852.34 307.611L860.685 311.798L868.889 315.994L876.948 320.197L884.859 324.406L892.618 328.619L900.222 332.835L907.669 337.051L914.955 341.266L922.076 345.479L929.03 349.688L935.814 353.891L942.426 358.086L948.861 362.273L955.119 366.45L961.195 370.614L967.088 374.764L972.794 378.9L978.313 383.019L983.64 387.119L988.775 391.2L993.715 395.259L998.457 399.295L1003 403.307L1007.34 407.293L1011.48 411.251L1015.42 415.181L1019.14 419.08L1022.67 422.948L1025.98 426.783L1029.08 430.583L1031.97 434.347L1034.64 438.073L1037.1 441.761L1039.35 445.409L1041.38 449.016L1043.19 452.579L1044.79 456.099L1046.17 459.574L1047.32 463.002L1048.26 466.383L1048.98 469.714L1049.48 472.996L1049.76 476.226L1049.82 479.404L1049.66 482.528L1049.27 485.597L1048.67 488.611L1047.85 491.568L1046.81 494.468L1045.55 497.308L1044.07 500.089L1042.37 502.809L1040.46 505.467L1038.33 508.063L1035.99 510.596L1033.43 513.064L1030.66 515.466L1027.67 517.803L1024.48 520.073L1021.07 522.276L1017.46 524.411L1013.65 526.476L1009.62 528.472L1005.4 530.398L1000.97 532.253L996.349 534.036L991.527 535.748L986.51 537.387L981.3 538.953L975.9 540.446L970.311 541.864L964.536 543.208L958.577 544.478L952.437 545.673L946.119 546.792L939.626 547.835L932.959 548.802L926.123 549.693L919.119 550.508L911.951 551.246L904.622 551.908L897.135 552.492L889.494 552.999L881.7 553.43L873.758 553.783L865.672 554.059L857.444 554.258L849.078 554.379L840.577 554.424L831.946 554.392L823.188 554.284L814.306 554.098L805.305 553.837L796.188 553.499L786.959 553.085L777.622 552.595L768.18 552.031L758.639 551.391L749.002 550.676L739.272 549.887L729.455 549.025L719.554 548.089L709.574 547.08L699.518 545.998L689.391 544.845L679.198 543.62L668.942 542.324L658.628 540.958L648.261 539.523L637.843 538.018L627.381 536.446L616.879 534.805L606.34 533.098L595.77 531.324L585.173 529.485L574.552 527.582L563.914 525.614L553.262 523.584L542.601 521.492L531.934 519.338L521.268 517.124L510.606 514.85L499.952 512.518L489.312 510.129L478.689 507.683L468.089 505.181L457.515 502.625L446.973 500.015L436.465 497.353L425.998 494.639L415.575 491.876L405.201 489.062L394.88 486.201L384.616 483.293L374.414 480.339L364.278 477.34L354.212 474.298L344.22 471.214L334.307 468.088L324.478 464.923L314.735 461.719L305.083 458.478L295.526 455.2L286.068 451.888L276.713 448.542L267.465 445.164L258.327 441.755L249.305 438.316L240.4 434.849L231.618 431.355L222.962 427.835L214.434 424.29L206.04 420.723L197.782 417.134L189.664 413.524L181.69 409.896L173.862 406.25L166.183 402.588L158.658 398.911L151.288 395.22L144.078 391.518L137.03 387.804L130.147 384.082L123.432 380.351L116.888 376.614L110.517 372.871L104.322 369.125L98.3052 365.377L92.4698 361.627L86.8179 357.878L81.3518 354.13L76.0736 350.386L70.9857 346.646L66.09 342.912L61.3885 339.185L56.8832 335.467L52.5759 331.758L48.4684 328.061L44.5622 324.377L40.8591 320.706L37.3605 317.051L34.0677 313.412L30.9821 309.792L28.1049 306.19L25.4373 302.609L22.9803 299.05L20.7349 295.514L18.702 292.002L16.8823 288.516L15.2765 285.057L13.8852 281.625L12.709 278.224L11.7482 274.852L11.0032 271.512L10.4742 268.205L10.1614 264.933L10.0649 261.695L10.1844 258.493L10.52 255.33L11.0715 252.204L11.8385 249.119L12.8205 246.074L14.0172 243.07L15.4279 240.11L17.0521 237.194L18.8887 234.322L20.9372 231.496L23.1965 228.718L25.6655 225.987L28.3431 223.304L31.2283 220.672L34.3195 218.089L37.6156 215.559L41.1149 213.08L44.816 210.655L48.7172 208.284L52.8168 205.967L57.113 203.706L61.6039 201.502L66.2876 199.354L71.1619 197.264L76.2248 195.233L81.4741 193.26L86.9074 191.348L92.5224 189.495L98.3168 187.704L104.288 185.974L110.433 184.307L116.75 182.702L123.235 181.16L129.887 179.682L136.702 178.268L143.677 176.919L150.809 175.635L158.095 174.416L165.532 173.262L173.117 172.175L180.847 171.155L188.718 170.201L196.726 169.314L204.869 168.494L213.143 167.742L221.545 167.058L230.07 166.441L238.716 165.893L247.478 165.412L256.353 165L265.336 164.656L274.425 164.381L283.615 164.174L292.903 164.036L302.284 163.965L311.755 163.964L321.31 164.03L330.948 164.165L340.662 164.368L350.45 164.639L360.307 164.977L370.228 165.384L380.21 165.857L390.249 166.398L400.34 167.006L410.478 167.68L420.66 168.421L430.882 169.228L441.138 170.1L451.426 171.038L461.739 172.041L472.075 173.108L482.428 174.239L492.794 175.434L503.169 176.692L513.549 178.012L523.929 179.394L534.305 180.838L544.672 182.343L555.027 183.909L565.364 185.534L575.679 187.218L585.969 188.96L596.228 190.761L606.453 192.618L616.639 194.532L626.782 196.501L636.878 198.525L646.922 200.604L656.911 202.736L666.84 204.92L676.704 207.156L686.501 209.443L696.225 211.78L705.873 214.166L715.441 216.601L724.925 219.082L734.32 221.611L743.624 224.184L752.831 226.802L761.939 229.464L770.943 232.168L779.839 234.914L788.625 237.701L797.297 240.527L805.85 243.392L814.281 246.294L822.588 249.232L830.766 252.206L838.812 255.214L846.722 258.255L854.494 261.329L862.125 264.433L869.61 267.567L876.948 270.73L884.135 273.92L891.168 277.137L898.045 280.379L904.761 283.644L911.316 286.933L917.706 290.244L923.929 293.574L929.981 296.925L935.861 300.293L941.566 303.678L947.094 307.079L952.443 310.494L957.611 313.922L962.595 317.363L967.393 320.814L972.004 324.275L976.426 327.744L980.657 331.22L984.695 334.701L988.539 338.188L992.187 341.677L995.638 345.169L998.89 348.662L1001.94 352.154L1004.8 355.644L1007.45 359.132L1009.89 362.615L1012.14 366.093L1014.17 369.565L1016.01 373.028L1017.63 376.483L1019.05 379.927L1020.27 383.36L1021.27 386.78L1022.07 390.186L1022.66 393.576L1023.04 396.951L1023.22 400.308L1023.18 403.646L1022.94 406.964L1022.49 410.262L1021.83 413.537L1020.97 416.788L1019.9 420.015L1018.62 423.216L1017.14 426.391L1015.45 429.538L1013.56 432.655L1011.47 435.742L1009.18 438.799L1006.68 441.822L1003.98 444.813L1001.09 447.769L998.002 450.689L994.717 453.573L991.237 456.42L987.566 459.228L983.703 461.996L979.652 464.724L975.413 467.41L970.989 470.055L966.382 472.655L961.594 475.212L956.626 477.723L951.482 480.188L946.162 482.607L940.671 484.978L935.01 487.3L929.181 489.572L923.188 491.795L917.032 493.966L910.717 496.086L904.245 498.153L897.619 500.167L890.842 502.127L883.916 504.033L876.846 505.883L869.634 507.677L862.282 509.415L854.795 511.095L847.175 512.718L839.426 514.282L831.551 515.787L823.553 517.233L815.436 518.619L807.204 519.944L798.859 521.209L790.406 522.412L781.848 523.553L773.189 524.632L764.432 525.649L755.581 526.602L746.64 527.492L737.613 528.319L728.503 529.082L719.315 529.78L710.052 530.414L700.719 530.983L691.318 531.487L681.855 531.927L672.333 532.301L662.756 532.609L653.129 532.853L643.455 533.03L633.738 533.142L623.983 533.188L614.193 533.168L604.374 533.083L594.528 532.932L584.66 532.715L574.774 532.433L564.875 532.085L554.966 531.671L545.052 531.192L535.136 530.649L525.224 530.04L515.318 529.366L505.424 528.628L495.545 527.826L485.685 526.959L475.849 526.029L466.041 525.036L456.264 523.979L446.523 522.859L436.822 521.678L427.165 520.434L417.556 519.129L407.998 517.763L398.497 516.336L389.055 514.849L379.677 513.302L370.366 511.696L361.127 510.032L351.963 508.31L342.877 506.53L333.875 504.694L324.959 502.801L316.132 500.853L307.4 498.851L298.765 496.794L290.23 494.683L281.8 492.52L273.477 490.306L265.266 488.04L257.168 485.723L249.189 483.357L241.331 480.942L233.596 478.48L225.989 475.97L218.512 473.414L211.169 470.813L203.962 468.167L196.894 465.478L189.968 462.746L183.187 459.973L176.554 457.159L170.071 454.306L163.74 451.414L157.565 448.484L151.548 445.517L145.691 442.515L139.996 439.479L134.466 436.409L129.103 433.307L123.909 430.173L118.885 427.009L114.035 423.816L109.36 420.596L104.861 417.348L100.541 414.075L96.4005 410.777L92.4417 407.456L88.6662 404.112L85.0752 400.748L81.67 397.363L78.4519 393.961L75.4223 390.54L72.582 387.104L69.9322 383.652L67.4738 380.187L65.2076 376.709L63.1345 373.22L61.2552 369.721L59.5702 366.213L58.0801 362.698L56.7854 359.176L55.6863 355.649L54.7834 352.118L54.0766 348.585L53.5662 345.05L53.2522 341.516L53.1345 337.983L53.213 334.452L53.4876 330.925L53.9579 327.403L54.6236 323.887L55.4842 320.379L56.5392 316.88L57.788 313.391L59.2299 309.914L60.8641 306.449L62.6897 302.998L64.7059 299.562L66.9117 296.142L69.3059 292.74L71.8873 289.357L74.6549 285.994L77.6071 282.652L80.7426 279.333L84.06 276.038L87.5577 272.767L91.234 269.523L95.0874 266.306L99.116 263.118L103.318 259.959L107.691 256.831L112.234 253.736L116.945 250.673L121.821 247.645L126.86 244.652L132.059 241.695L137.418 238.776L142.933 235.896L148.601 233.056L154.421 230.257L160.389 227.499L166.504 224.785L172.762 222.114L179.161 219.488L185.697 216.909L192.369 214.376L199.173 211.891L206.106 209.455L213.165 207.069L220.347 204.733L227.65 202.449L235.069 200.217L242.602 198.039L250.245 195.915L257.996 193.846L265.85 191.833L273.805 189.876L281.857 187.976L290.002 186.135L298.238 184.353L306.56 182.629L314.965 180.967L323.45 179.365L332.011 177.824L340.644 176.346L349.346 174.931L358.112 173.578L366.94 172.29L375.826 171.066L384.765 169.907L393.754 168.814L402.789 167.786L411.867 166.825L420.983 165.931L430.135 165.104L439.317 164.344L448.526 163.652L457.758 163.029L467.01 162.474L476.277 161.988L485.556 161.571L494.843 161.223L504.134 160.945L513.425 160.736L522.712 160.598L531.991 160.529L541.259 160.531L550.512 160.603L559.745 160.745L568.956 160.957L578.139 161.239L587.293 161.592L596.412 162.015L605.493 162.509L614.532 163.072L623.525 163.705L632.47 164.408L641.361 165.181L650.197 166.023L658.972 166.935L667.683 167.915L676.327 168.964L684.901 170.081L693.4 171.267L701.822 172.52L710.163 173.841L718.419 175.228L726.588 176.683L734.665 178.203L742.648 179.789L750.534 181.439L758.319 183.155L766 184.935L773.574 186.778L781.039 188.684L788.39 190.652L795.626 192.682L802.743 194.773L809.739 196.924L816.61 199.135L823.354 201.404L829.969 203.732L836.451 206.117L842.799 208.559L849.01 211.056L855.08 213.608L861.009 216.214L866.793 218.873L872.431 221.584L877.92 224.346L883.258 227.159L888.443 230.021L893.473 232.932L898.346 235.89L903.061 238.894L907.615 241.943L912.007 245.037L916.236 248.174L920.299 251.352L924.195 254.572L927.923 257.831L931.481 261.13L934.868 264.465L938.083 267.837L941.125 271.244L943.992 274.685L946.684 278.158L949.2 281.663L951.539 285.198L953.7 288.762L955.682 292.353L957.485 295.971L959.108 299.614L960.551 303.28L961.814 306.969L962.895 310.679L963.796 314.409L964.515 318.157L965.052 321.921L965.409 325.702L965.584 329.497L965.577 333.304L965.39 337.123L965.021 340.952L964.473 344.79L963.744 348.634L962.836 352.485L961.749 356.34L960.484 360.197L959.042 364.057L957.422 367.916L955.627 371.774L953.657 375.629L951.513 379.48L949.197 383.325L946.708 387.163L944.05 390.992L941.222 394.811L938.226 398.619L935.064 402.414L931.738 406.194L928.248 409.959L924.596 413.706L920.784 417.435L916.815 421.143L912.689 424.83L908.408 428.495L903.975 432.134L899.392 435.748L894.66 439.335L889.781 442.894L884.759 446.422L879.595 449.92L874.291 453.384L868.85 456.815L863.274 460.21L857.565 463.569L851.727 466.89L845.761 470.171L839.671 473.412L833.459 476.611L827.127 479.767L820.679 482.879L814.117 485.945L807.444 488.964L800.662 491.935L793.776 494.857L786.788 497.728L779.7 500.548L772.516 503.315L765.239 506.028L757.872 508.687L750.419 511.289L742.881 513.834L735.263 516.321L727.568 518.749L719.799 521.116L711.959 523.422L704.052 525.667L696.081 527.847L688.049 529.964L679.96 532.016L671.816 534.002L663.623 535.922L655.382 537.774L647.097 539.557L638.773 541.272L630.411 542.916L622.017 544.49L613.593 545.993L605.142 547.423L596.669 548.781L588.176 550.066L579.668 551.276L571.148 552.413L562.618 553.474L554.084 554.459L545.548 555.369L537.014 556.202L528.485 556.957L519.965 557.636L511.457 558.237L502.965 558.759L494.493 559.203L486.043 559.569L477.619 559.855L469.224 560.062L460.863 560.189L452.538 560.237L444.253 560.205L436.01 560.093L427.814 559.901L419.668 559.63L411.575 559.277L403.538 558.845L395.56 558.333L387.645 557.74L379.796 557.068L372.015 556.316L364.307 555.484L356.674 554.573L349.118 553.583L341.644 552.513L334.254 551.365L326.951 550.138L319.738 548.834L312.617 547.451L305.592 545.992L298.664 544.455L291.838 542.842L285.116 541.153L278.499 539.389L271.991 537.549L265.595 535.636L259.312 533.649L253.146 531.588L247.098 529.456L241.17 527.252L235.366 524.976L229.688 522.631L224.136 520.216L218.714 517.732L213.424 515.181L208.267 512.563L203.246 509.879L198.363 507.129L193.618 504.316L189.014 501.439L184.553 498.501L180.236 495.501L176.066 492.441L172.042 489.322L168.167 486.145L164.442 482.911L160.869 479.621L157.449 476.277L154.182 472.88L151.07 469.431L148.115 465.931L145.316 462.381L142.676 458.783L140.194 455.139L137.873 451.448L135.711 447.713L133.711 443.936L131.872 440.117L130.195 436.257L128.681 432.359L127.33 428.424L126.142 424.453L125.118 420.447L124.258 416.409L123.562 412.339L123.029 408.24L122.661 404.112L122.456 399.957L122.416 395.778L122.538 391.574L122.824 387.349L123.273 383.103L123.885 378.839L124.658 374.557L125.593 370.26L126.689 365.949L127.944 361.625L129.36 357.291L130.934 352.948L132.666 348.598L134.554 344.242L136.599 339.883L138.798 335.521L141.151 331.158L143.657 326.797L146.314 322.439L149.121 318.085L152.077 313.737L155.179 309.397L158.428 305.067L161.821 300.749L165.356 296.443L169.033 292.152L172.849 287.878L176.802 283.622L180.891 279.385L185.115 275.17L189.47 270.979L193.955 266.812L198.568 262.671L203.307 258.559L208.171 254.477L213.155 250.426L218.26 246.409L223.482 242.426L228.818 238.48L234.268 234.571L239.827 230.702L245.495 226.874L251.268 223.089L257.144 219.348L263.12 215.653L269.195 212.005L275.364 208.406L281.626 204.858L287.978 201.361L294.417 197.917L300.941 194.529L307.547 191.196L314.231 187.92L320.992 184.704L327.826 181.548L334.73 178.453L341.702 175.421L348.738 172.454L355.836 169.552L362.993 166.716L370.205 163.949L377.47 161.251L384.785 158.623L392.146 156.066L399.551 153.582L406.997 151.172L414.48 148.837L421.997 146.577L429.546 144.394L437.123 142.289L444.725 140.263L452.349 138.316L459.993 136.45L467.652 134.665L475.323 132.963L483.004 131.344L490.692 129.809L498.383 128.358L506.074 126.993L513.763 125.713L521.445 124.521L529.118 123.415L536.78 122.398L544.426 121.469L552.054 120.629L559.66 119.878L567.242 119.217L574.797 118.646L582.322 118.166L589.813 117.777L597.268 117.48L604.684 117.274L612.057 117.159L619.386 117.137L626.666 117.207L633.896 117.369L641.072 117.623L648.192 117.97L655.253 118.41L662.251 118.941L669.185 119.566L676.052 120.282L682.848 121.091L689.572 121.991L696.221 122.983L702.792 124.067L709.282 125.242L715.69 126.509L722.013 127.865L728.248 129.312L734.393 130.849L740.445 132.475L746.403 134.19L752.264 135.993L758.027 137.884L763.687 139.862L769.245 141.926L774.697 144.076L780.042 146.312L785.277 148.632L790.402 151.035L795.413 153.521L800.308 156.089L805.088 158.738L809.748 161.467L814.289 164.275L818.707 167.162L823.002 170.125L827.173 173.165L831.216 176.279L835.132 179.468L838.919 182.729L842.575 186.062L846.1 189.465L849.492 192.938L852.749 196.478L855.871 200.085L858.857 203.757L861.706 207.493L864.417 211.291L866.989 215.15L869.421 219.07L871.712 223.047L873.862 227.081L875.871 231.17L877.736 235.313L879.459 239.508L881.039 243.753L882.475 248.047L883.766 252.389L884.913 256.776L885.916 261.207L886.773 265.68L887.486 270.194L888.054 274.746L888.476 279.336L888.754 283.96L888.887 288.618L888.875 293.308L888.719 298.028L888.419 302.775L887.976 307.549L887.388 312.347L886.658 317.167L885.786 322.008L884.772 326.867L883.617 331.743L882.321 336.634L880.886 341.538L879.312 346.452L877.599 351.376L875.75 356.306L873.764 361.242L871.644 366.18L869.389 371.12L867.001 376.058L864.482 380.994L861.831 385.925L859.052 390.849L856.144 395.764L853.11 400.668L849.95 405.56L846.667 410.436L843.262 415.296L839.735 420.138L836.09 424.958L832.327 429.756L828.448 434.529L824.455 439.276L820.35 443.994L816.135 448.681L811.81 453.336L807.379 457.957L802.843 462.542L798.205 467.088L793.465 471.594L788.627 476.059L783.692 480.48L778.662 484.855L773.539 489.183L768.327 493.461L763.026 497.688L757.64 501.863L752.17 505.983L746.619 510.047L740.988 514.052L735.281 517.998L729.5 521.883L723.648 525.704L717.725 529.461L711.736 533.151L705.683 536.773L699.567 540.326L693.392 543.808L687.16 547.218L680.874 550.553L674.536 553.813L668.149 556.996L661.715 560.1L655.237 563.125L648.718 566.069L642.16 568.931L635.566 571.709L628.939 574.402L622.281 577.009L615.595 579.528L608.883 581.96L602.149 584.301L595.394 586.553L588.623 588.712L581.836 590.779L575.038 592.752L568.23 594.631L561.416 596.414L554.598 598.101L547.779 599.69L540.961 601.182L534.147 602.575L527.341 603.868L520.543 605.062L513.758 606.155L506.988 607.146L500.235 608.035L493.502 608.823L486.791 609.507L480.106 610.088L473.449 610.565L466.822 610.938L460.227 611.207L453.669 611.371L447.148 611.431L440.668 611.385L434.23 611.235L427.838 610.979L421.494 610.618L415.199 610.151L408.958 609.579L402.771 608.903L396.642 608.12L390.571 607.234L384.563 606.242L378.619 605.146L372.741 603.946L366.931 602.642L361.192 601.234L355.526 599.724L349.935 598.111L344.42 596.395L338.984 594.579L333.629 592.661L328.357 590.643L323.17 588.526L318.069 586.309L313.056 583.995L308.134 581.583L303.304 579.074L298.568 576.47L293.926 573.771L289.382 570.979L284.937 568.093L280.592 565.116L276.349 562.048L272.208 558.891L268.173 555.646L264.243 552.313L260.421 548.894L256.708 545.39L253.105 541.804L249.612 538.135L246.232 534.385L242.966 530.556L239.814 526.65L236.777 522.667L233.857 518.609L231.055 514.478L228.371 510.275L225.806 506.002L223.361 501.661L221.037 497.253L218.834 492.78L216.753 488.243L214.795 483.645L212.961 478.987L211.249 474.271L209.662 469.499L208.2 464.673L206.863 459.794L205.651 454.865L204.564 449.887L203.603 444.863L202.768 439.794L202.059 434.683L201.476 429.531L201.019 424.34L200.687 419.113L200.482 413.852L200.403 408.558L200.449 403.234L200.621 397.882L200.917 392.505L201.339 387.103L201.885 381.68L202.554 376.238L203.348 370.778L204.264 365.304L205.303 359.817L206.463 354.319L207.745 348.813L209.147 343.301L210.669 337.785L212.309 332.267L214.068 326.751L215.944 321.237L217.937 315.728L220.045 310.227L222.267 304.735L224.602 299.256L227.05 293.791L229.608 288.342L232.277 282.912L235.054 277.503L237.939 272.117L240.93 266.757L244.026 261.424L247.225 256.121L250.526 250.851L253.928 245.614L257.429 240.414L261.028 235.253L264.723 230.133L268.512 225.056L272.395 220.024L276.368 215.039L280.432 210.103L284.583 205.219L288.82 200.389L293.142 195.614L297.547 190.896L302.032 186.239L306.596 181.642L311.238 177.11L315.954 172.643L320.744 168.243L325.605 163.913L330.536 159.653L335.533 155.467L340.597 151.356L345.723 147.321L350.911 143.365L356.157 139.488L361.461 135.694L366.82 131.983L372.232 128.357L377.694 124.817L383.205 121.366L388.762 118.005L394.363 114.735L400.007 111.557L405.69 108.474L411.41 105.486L417.166 102.596L422.955 99.8029L428.774 97.1098L434.622 94.5173L440.497 92.0268L446.395 89.6392L452.315 87.3559L458.254 85.1777L464.211 83.1058L470.182 81.1411L476.166 79.2846L482.161 77.5372L488.163 75.8997L494.171 74.373L500.182 72.9577L506.195 71.6547L512.206 70.4647L518.214 69.3882L524.217 68.4258L530.211 67.578L536.196 66.8454L542.168 66.2284L548.125 65.7275L554.065 65.3428L559.986 65.0748L565.886 64.9237L571.763 64.8898L577.614 64.9731L583.437 65.1737L589.23 65.4918L594.991 65.9274L600.717 66.4804L606.408 67.1507L612.06 67.9382L617.671 68.8428L623.24 69.8641L628.764 71.0019L634.242 72.256L639.671 73.6259L645.05 75.1111L650.376 76.7113L655.648 78.4258L660.864 80.2542L666.021 82.1958L671.119 84.2499L676.154 86.4159L681.127 88.6929L686.033 91.0802L690.873 93.5769L695.644 96.1821L700.344 98.895L704.972 101.714L709.527 104.639L714.006 107.669L718.408 110.801L722.732 114.036L726.976 117.372L731.138 120.808L735.218 124.342L739.213 127.973L743.123 131.7L746.946 135.521L750.68 139.434L754.326 143.439L757.88 147.534L761.343 151.717L764.712 155.986L767.988 160.341L771.168 164.778L774.252 169.297L777.238 173.895L780.127 178.572L782.916 183.324L785.605 188.15L788.193 193.049L790.68 198.018L793.064 203.055L795.344 208.159L797.521 213.327L799.593 218.557L801.561 223.847L803.422 229.195L805.177 234.599L806.825 240.057L808.366 245.566L809.799 251.124L811.125 256.73L812.341 262.38L813.45 268.072L814.449 273.805L815.339 279.576L816.12 285.382L816.791 291.221L817.353 297.091L817.805 302.99L818.148 308.914L818.381 314.862L818.505 320.831L818.519 326.818L818.424 332.822L818.22 338.84L817.907 344.869L817.486 350.906L816.957 356.95L816.319 362.997L815.574 369.046L814.722 375.094L813.764 381.138L812.699 387.175L811.529 393.204L810.254 399.222L808.874 405.226L807.391 411.213L805.805 417.182L804.117 423.13L802.326 429.054L800.436 434.951L798.445 440.82L796.355 446.658L794.167 452.462L791.883 458.23L789.501 463.96L787.025 469.649L784.454 475.294L781.791 480.894L779.035 486.446L776.188 491.947L773.252 497.396L770.227 502.789L767.115 508.125L763.917 513.402L760.635 518.617L757.268 523.767L753.82 528.851L750.291 533.867L746.683 538.812L742.997 543.684L739.234 548.482L735.397 553.202L731.486 557.844L727.503 562.405L723.449 566.882L719.327 571.275L715.138 575.581L710.883 579.798L706.564 583.925L702.183 587.959L697.741 591.899L693.24 595.744L688.682 599.491L684.069 603.138L679.401 606.685L674.682 610.13L669.913 613.47L665.095 616.705L660.231 619.834L655.322 622.854L650.37 625.764L645.377 628.564L640.345 631.251L635.275 633.825L630.171 636.284L625.032 638.627L619.862 640.853L614.663 642.962L609.435 644.952L604.182 646.822L598.905 648.571L593.606 650.198L588.287 651.703L582.95 653.085L577.597 654.343L572.23 655.477L566.85 656.486L561.461 657.369L556.063 658.125L550.659 658.756L545.251 659.259L539.84 659.635L534.429 659.884L529.02 660.005L523.614 659.998L518.214 659.863L512.821 659.599L507.438 659.208L502.066 658.688L496.707 658.041L491.363 657.266L486.037 656.363L480.729 655.332L475.443 654.175L470.179 652.89L464.94 651.48L459.728 649.943L454.544 648.282L449.39 646.495L444.269 644.584L439.181 642.55L434.129 640.393L429.115 638.115L424.139 635.715L419.205 633.195L414.314 630.555L409.467 627.797L404.666 624.923L399.913 621.931L395.21 618.825L390.558 615.605L385.959 612.273L381.414 608.829L376.925 605.275L372.494 601.612L368.122 597.843L363.81 593.967L359.561 589.987L355.375 585.905L351.255 581.722L347.2 577.44L343.214 573.059L339.297 568.583L335.451 564.013L331.676 559.35L327.975 554.597L324.348 549.755L320.797 544.827L317.323 539.814L313.927 534.718L310.61 529.542L307.374 524.287L304.219 518.956L301.146 513.551L298.158 508.073L295.254 502.526L292.435 496.911L289.703 491.231L287.058 485.488L284.502 479.685L282.035 473.823L279.658 467.905L277.371 461.934L275.176 455.911L273.074 449.841L271.064 443.724L269.148 437.564L267.326 431.363L265.599 425.123L263.967 418.847L262.43 412.538L260.991 406.199L259.648 399.831L258.402 393.438L257.254 387.023L256.203 380.587L255.251 374.134L254.397 367.666L253.642 361.185L252.986 354.696L252.43 348.2L251.972 341.7L251.614 335.198L251.355 328.698L251.195 322.203L251.135 315.714L251.175 309.234L251.314 302.767L251.552 296.316L251.889 289.881L252.325 283.468L252.86 277.077L253.493 270.712L254.224 264.376L255.053 258.071L255.98 251.8L257.004 245.565L258.125 239.369L259.341 233.216L260.654 227.106L262.062 221.043L263.565 215.03L265.161 209.069L266.852 203.163L268.635 197.314L270.51 191.524L272.477 185.796L274.535 180.133L276.683 174.537L278.92 169.01L281.245 163.555L283.657 158.174L286.157 152.869L288.742 147.643L291.411 142.497L294.165 137.435L297.001 132.458L299.919 127.569L302.917 122.768L305.995 118.06L309.151 113.445L312.385 108.926L315.694 104.504L319.079 100.182L322.537 95.9613L326.068 91.8438L329.669 87.8313L333.341 83.9257L337.081 80.1287L340.888 76.4418L344.76 72.8667L348.698 69.4051L352.698 66.0583L356.76 62.828L360.881 59.7156L365.062 56.7224L369.299 53.8498L373.592 51.0991L377.939 48.4715L382.338 45.9682L386.789 43.5904L391.288 41.3392L395.836 39.2155L400.429 37.2204L405.067 35.3548L409.748 33.6195L414.47 32.0154L419.231 30.5433L424.03 29.2039L428.865 27.9978L433.734 26.9256L438.636 25.9879L443.569 25.1851L448.531 24.5177L453.52 23.9862L458.535 23.5907L463.573 23.3315L468.634 23.2089L473.714 23.223L478.813 23.3739L483.929 23.6617L489.059 24.0862L494.203 24.6475L499.357 25.3453L504.521 26.1795L509.692 27.1499L514.868 28.256L520.049 29.4977L525.231 30.8743L530.414 32.3855L535.594 34.0306L540.771 35.8093L545.943 37.7206L551.108 39.7639L556.263 41.9385L561.407 44.2436L566.539 46.6782L571.656 49.2415L576.757 51.9325L581.84 54.75L586.902 57.693L591.943 60.7605L596.96 63.951L601.952 67.2635L606.917 70.6966L611.853 74.2488L616.758 77.9189L621.63 81.7054L626.469 85.6067L631.272 89.6214L636.037 93.7477L640.763 97.984L645.448 102.329L650.09 106.78L654.688 111.336L659.24 115.995L663.745 120.755L668.2 125.614L672.605 130.57L676.957 135.621L681.255 140.766L685.499 146.001L689.685 151.325L693.812 156.736L697.88 162.231L701.886 167.808L705.83 173.466L709.709 179.201L713.523 185.011L717.269 190.893L720.948 196.847L724.556 202.868L728.094 208.954L731.559 215.104L734.951 221.314L738.268 227.582L741.509 233.905L744.673 240.281L747.758 246.706L750.765 253.179L753.69 259.697L756.534 266.256L759.296 272.855L761.974 279.49L764.567 286.159L767.074 292.858L769.495 299.586L771.829 306.339L774.074 313.114L776.23 319.91L778.297 326.722L780.272 333.547L782.156 340.384L783.948 347.23L785.647 354.08L787.253 360.933L788.764 367.786L790.181 374.635L791.503 381.478L792.729 388.313L793.858 395.135L794.891 401.942L795.827 408.732L796.665 415.502L797.405 422.248L798.047 428.967L798.591 435.658L799.036 442.317L799.382 448.941L799.629 455.528L799.776 462.075L799.825 468.578L799.774 475.036L799.623 481.445L799.373 487.803L799.023 494.106L798.574 500.354L798.026 506.542L797.379 512.668L796.632 518.729L795.787 524.724L794.843 530.648L793.801 536.501L792.661 542.279L791.424 547.98L790.089 553.601L788.657 559.14L787.129 564.595L785.505 569.963L783.785 575.242L781.971 580.43L780.062 585.524L778.06 590.522L775.964 595.423L773.777 600.224L771.497 604.923L769.127 609.518L766.667 614.006L764.118 618.387L761.48 622.658L758.754 626.817L755.942 630.863L753.044 634.793L750.061 638.607L746.995 642.301L743.846 645.876L740.615 649.329L737.304 652.658L733.914 655.862L730.445 658.941L726.899 661.892L723.277 664.714L719.58 667.405L715.811 669.966L711.969 672.394L708.056 674.688L704.074 676.848L700.023 678.873L695.907 680.761L691.725 682.511L687.479 684.124L683.171 685.597L678.802 686.932L674.373 688.126L669.887 689.179L665.345 690.091L660.748 690.861L656.099 691.489L651.397 691.975L646.647 692.318L641.848 692.518L637.002 692.576L632.112 692.49L627.179 692.261L622.205 691.888L617.191 691.373L612.14 690.715L607.053 689.914L601.931 688.971L596.778 687.886L591.594 686.659L586.381 685.291L581.142 683.782L575.877 682.133L570.59 680.345L565.281 678.417L559.954 676.352L554.609 674.149L549.249 671.81L543.875 669.336L538.489 666.727L533.094 663.985L527.692 661.111L522.284 658.105L516.872 654.969L511.458 651.705L506.044 648.313L500.633 644.795L495.225 641.153L489.824 637.387L484.431 633.5L479.048 629.493L473.676 625.368L468.319 621.126L462.978 616.769L457.654 612.299L452.351 607.718L447.069 603.028L441.811 598.229L436.578 593.326L431.373 588.319L426.198 583.21L421.054 578.003L415.944 572.698L410.868 567.298L405.83 561.805L400.831 556.223L395.873 550.551L390.958 544.795L386.087 538.955L381.262 533.033L376.486 527.034L371.76 520.958L367.086 514.809L362.466 508.589L357.9 502.301L353.392 495.947L348.943 489.531L344.555 483.053L340.228 476.519L335.965 469.929L331.768 463.287L327.638 456.596L323.577 449.858L319.586 443.076L315.667 436.254L311.822 429.393L308.051 422.497L304.356 415.569L300.74 408.612L297.202 401.628L293.746 394.621L290.371 387.593L287.08 380.547L283.873 373.487L280.753 366.415L277.719 359.334L274.774 352.248L271.919 345.159L269.155 338.07L266.482 330.984L263.903 323.905L261.418 316.834L259.028 309.776L256.734 302.733L254.538 295.708L252.439 288.704L250.44 281.724L248.54 274.771L246.742 267.848L245.044 260.958L243.449 254.104L241.958 247.288L240.569 240.514L239.286 233.784L238.107 227.101L237.034 220.469L236.067 213.889L235.207 207.366L234.453 200.9L233.808 194.496L233.27 188.155L232.84 181.882L232.52 175.677L232.308 169.544L232.205 163.486L232.211 157.505L232.327 151.604L232.552 145.784L232.887 140.05L233.332 134.402L233.887 128.844L234.551 123.377L235.324 118.005L236.207 112.729L237.199 107.552L238.301 102.475L239.511 97.5018L240.829 92.6336L242.256 87.8727L243.79 83.2211L245.432 78.6807L247.181 74.2536L249.036 69.9415L250.997 65.7465L253.064 61.6701L255.235 57.7143L257.51 53.8807L259.889 50.1709L262.37 46.5866L264.953 43.1293L267.637 39.8004L270.422 36.6015L273.305 33.5338L276.288 30.5987L279.367 27.7976L282.543 25.1315L285.814 22.6017L289.18 20.2092L292.639 17.9552L296.19 15.8404L299.832 13.866L303.563 12.0328L307.383 10.3415L311.29 8.79291L315.283 7.38772L319.36 6.12655L323.52 5.00998L327.761 4.03852L332.083 3.21257L336.483 2.5325L340.961 1.99867L345.514 1.61136L350.141 1.37071L354.84 1.27684L359.61 1.32987L364.449 1.52979L369.355 1.87653L374.327 2.37002L379.362 3.01003L384.46 3.79632L389.617 4.72864L394.833 5.80659L400.105 7.02973L405.432 8.39761L410.812 9.90962L416.242 11.5653L421.721 13.3637L427.247 15.3044L432.817 17.3865L438.43 19.609L444.084 21.9711L449.777 24.472L455.505 27.1103L461.269 29.8852L467.064 32.7955L472.89 35.84L478.744 39.0174L484.623 42.3263L490.527 45.7655L496.451 49.3335L502.395 53.0288L508.356 56.8499L514.332 60.7951L520.32 64.8629L526.319 69.0515L532.326 73.3593L538.338 77.7843L544.354 82.3248L550.372 86.9789L556.388 91.7445L562.401 96.6198L568.409 101.603L574.408 106.691L580.398 111.883L586.375 117.176L592.337 122.568L598.282 128.056L604.208 133.639L610.113 139.314L615.993 145.079L621.848 150.931L627.674 156.868L633.469 162.887L639.232 168.986L644.959 175.163L650.649 181.413L656.299 187.736L661.907 194.129L667.472 200.588L672.99 207.11L678.459 213.695L683.878 220.337L689.245 227.035L694.556 233.786L699.811 240.587L705.006 247.436L710.14 254.328L715.211 261.262L720.217 268.234L725.155 275.242L730.025 282.282L734.822 289.352L739.547 296.448L744.197 303.568L748.769 310.709L753.262 317.867L757.675 325.04L762.005 332.224L766.251 339.417L770.411 346.615L774.482 353.816L778.464 361.016L782.355 368.213L786.153 375.403L789.856 382.583L793.463 389.75L796.973 396.902L800.383 404.035L803.693 411.147L806.9 418.233L810.004 425.292L813.004 432.32L815.897 439.314L818.682 446.272L821.359 453.19L823.926 460.066L826.381 466.896L828.725 473.678L830.955 480.408L833.071 487.085L835.071 493.705L836.955 500.265L838.722 506.763L840.37 513.196L841.9 519.561L843.309 525.855L844.599 532.076L845.767 538.222L846.812 544.288L847.736 550.274L848.536 556.177L849.213 561.993L849.766 567.721L850.194 573.358L850.498 578.902L850.676 584.351L850.729 589.701L850.656 594.951L850.457 600.099L850.132 605.142L849.681 610.079L849.104 614.907L848.401 619.624L847.572 624.228L846.616 628.718L845.535 633.09L844.329 637.345L842.996 641.479L841.539 645.491L839.957 649.379L838.251 653.142L836.421 656.778L834.468 660.286L832.391 663.664L830.193 666.91L827.873 670.023L825.432 673.003L822.871 675.847L820.19 678.554L817.391 681.124L814.475 683.556L811.442 685.847L808.293 687.998L805.029 690.007L801.652 691.873L798.162 693.596L794.561 695.176L790.85 696.61L787.03 697.899L783.102 699.043L779.068 700.04L774.93 700.891L770.688 701.594L766.344 702.15L761.9 702.559L757.357 702.819L752.716 702.932L747.98 702.897L743.151 702.714L738.229 702.384L733.216 701.905L728.115 701.279L722.928 700.506L717.655 699.587L712.299 698.52L706.863 697.308L701.347 695.95L695.755 694.448L690.087 692.801L684.347 691.01L678.535 689.077L672.656 687.002L666.71 684.785L660.699 682.429L654.627 679.933L648.495 677.3L642.306 674.529L636.061 671.623L629.764 668.582L623.417 665.407L617.022 662.101L610.581 658.665L604.097 655.099L597.572 651.406L591.01 647.586L584.412 643.643L577.781 639.577L571.119 635.389L564.43 631.083L557.715 626.659L550.977 622.12L544.219 617.467L537.444 612.703L530.654 607.829L523.851 602.848L517.039 597.761L510.22 592.571L503.397 587.28L496.572 581.89L489.749 576.403L482.929 570.823L476.115 565.151L469.311 559.389L462.518 553.54L455.74 547.607L448.98 541.591L442.239 535.497L435.521 529.325L428.828 523.079L422.163 516.762L415.529 510.375L408.928 503.922L402.363 497.406L395.837 490.829L389.352 484.194L382.911 477.504L376.517 470.762L370.172 463.97L363.878 457.131L357.639 450.249L351.456 443.326L345.333 436.364L339.272 429.368L333.276 422.34L327.346 415.283L321.485 408.2L315.697 401.094L309.982 393.967L304.344 386.824L298.785 379.666L293.307 372.498L287.913 365.321L282.605 358.14L277.384 350.956L272.254 343.774L267.217 336.595L262.274 329.424L257.428 322.263L252.68 315.115L248.034 307.983L243.49 300.871L239.051 293.78L234.719 286.715L230.496 279.678L226.383 272.672L222.383 265.7L218.496 258.765L214.726 251.87L211.073 245.018L207.539 238.211L204.126 231.453L200.836 224.747L197.669 218.094L194.627 211.499L191.713 204.963L188.926 198.49L186.269 192.082L183.742 185.741L181.347 179.472L179.086 173.276L176.958 167.155L174.966 161.113L173.11 155.151L171.391 149.273L169.811 143.481L168.369 137.778L167.067 132.164L165.906 126.644L164.886 121.219L164.007 115.892L163.272 110.665L162.679 105.539L162.229 100.518L161.924 95.6028L161.762 90.7959L161.746 86.0994L161.873 81.515L162.146 77.0448L162.564 72.6905L163.127 68.4541L163.835 64.3372L164.688 60.3416L165.686 56.4689L166.829 52.7207L168.116 49.0986L169.548 45.6041L171.124 42.2385L172.843 39.0035L174.705 35.9001L176.71 32.9297L178.857 30.0936L181.145 27.3929L183.574 24.8287L186.143 22.402L188.851 20.1138L191.697 17.9651L194.681 15.9568L197.801 14.0896L201.057 12.3643L204.446 10.7815L207.969 9.34204L211.623 8.04633L215.409 6.89491L219.323 5.88822L223.366 5.02668L227.535 4.31059L231.83 3.74018L236.247 3.31573L240.787 3.03731L245.447 2.90504L250.226 2.9189L255.122 3.0789L260.133 3.38486L265.257 3.83668L270.493 4.43409L275.839 5.17681L281.291 6.06445L286.85 7.09665L292.512 8.27289L298.275 9.59268L304.137 11.0554L310.097 12.6603L316.151 14.4068L322.298 16.2941L328.535 18.3213L334.859 20.4876L341.269 22.792L347.762 25.2334L354.335 27.8108L360.987 30.5231L367.713 33.3691L374.513 36.3476L381.382 39.4572L388.319 42.6966L395.321 46.0645L402.385 49.5593L409.508 53.1795L416.688 56.9236L423.922 60.7899L431.206 64.7769L438.539 68.8827L445.916 73.1056L453.336 77.4438L460.796 81.8955L468.292 86.4586L475.821 91.1313L483.38 95.9115L490.968 100.797L498.579 105.786L506.212 110.877L513.863 116.066L521.53 121.353L529.208 126.734L536.896 132.207L544.59 137.77L552.287 143.421L559.984 149.158L567.677 154.977L575.365 160.876L583.042 166.853L590.707 172.905L598.356 179.03L605.987 185.225L613.595 191.487L621.179 197.814L628.734 204.203L636.258 210.652L643.747 217.157L651.2 223.716L658.611 230.326L665.979 236.984L673.301 243.688L680.573 250.434L687.792 257.22L694.955 264.044L702.06 270.901L709.103 277.789L716.082 284.705L722.993 291.647L729.834 298.611L736.602 305.594L743.293 312.594L749.906 319.608L756.436 326.632L762.883 333.663L769.242 340.7L775.511 347.737L781.688 354.774L787.769 361.806L793.752 368.832L799.635 375.847L805.415 382.848L811.09 389.834L816.657 396.801L822.113 403.746L827.457 410.666L832.685 417.559L837.796 424.42L842.788 431.249L847.658 438.041L852.404 444.793L857.024 451.504L861.516 458.17L865.878 464.789L870.107 471.357L874.203 477.871L878.163 484.331L881.985 490.731L885.668 497.071L889.21 503.346L892.609 509.556L895.864 515.696L898.973 521.764L901.934 527.759L904.747 533.677L907.41 539.516L909.921 545.273L912.28 550.947L914.485 556.534L916.535 562.033L918.429 567.441L920.166 572.757L921.745 577.977L923.166 583.099L924.427 588.123L925.527 593.044L926.467 597.863L927.245 602.575L927.861 607.18L928.314 611.676L928.604 616.061L928.731 620.333L928.695 624.49L928.494 628.53L928.13 632.453L927.601 636.256L926.908 639.938L926.052 643.497L925.031 646.932L923.846 650.241L922.499 653.424L920.988 656.478L919.314 659.403L917.478 662.198L915.48 664.861L913.321 667.392L911.001 669.789L908.522 672.051L905.884 674.178L903.087 676.168L900.134 678.021L897.024 679.737L893.759 681.314L890.34 682.752L886.768 684.051L883.044 685.209L879.17 686.228L875.147 687.105L870.977 687.841L866.661 688.436L862.2 688.889L857.597 689.201L852.853 689.371L847.969 689.399L842.948 689.286L837.791 689.031L832.5 688.635L827.078 688.097L821.526 687.419L815.846 686.601L810.041 685.642L804.113 684.544L798.064 683.307L791.896 681.932L785.612 680.418L779.214 678.768L772.704 676.982L766.086 675.06L759.362 673.003L752.533 670.813L745.604 668.49L738.577 666.036L731.453 663.451L724.237 660.736L716.931 657.894L709.539 654.925L702.061 651.83L694.503 648.611L686.867 645.269L679.155 641.806L671.371 638.223L663.518 634.523L655.6 630.705L647.618 626.773L639.577 622.727L631.48 618.57L623.33 614.303L615.13 609.929L606.883 605.449L598.594 600.865L590.264 596.179L581.899 591.392L573.5 586.509L565.071 581.529L556.616 576.456L548.139 571.291L539.642 566.038L531.129 560.697L522.604 555.271L514.07 549.764L505.531 544.176L496.989 538.511L488.45 532.771L479.915 526.958L471.389 521.074L462.876 515.123L454.377 509.107L445.899 503.029L437.442 496.89L429.012 490.694L420.612 484.443L412.245 478.14L403.914 471.788L395.624 465.389L387.377 458.946L379.178 452.461L371.028 445.939L362.933 439.38L354.895 432.788L346.918 426.166L339.004 419.517L331.158 412.843L323.383 406.147L315.682 399.432L308.058 392.701L300.514 385.956L293.054 379.201L285.681 372.439L278.398 365.671L271.208 358.902L264.114 352.134L257.12 345.369L250.227 338.61L243.44 331.861L236.761 325.125L230.193 318.403L223.738 311.699L217.401 305.015L211.182 298.355L205.086 291.721L199.115 285.116L193.27 278.543L187.556 272.004L181.974 265.502L176.527 259.04L171.218 252.62L166.048 246.246L161.019 239.92L156.136 233.643L151.398 227.42L146.809 221.253L142.371 215.143L138.085 209.094L133.953 203.108L129.978 197.188L126.162 191.336L122.505 185.555L119.01 179.846L115.678 174.212L112.511 168.656L109.511 163.179L106.679 157.785L104.015 152.474L101.522 147.25L99.2011 142.114L97.0528 137.069L95.0784 132.117L93.279 127.259L91.6556 122.497L90.2089 117.835L88.9398 113.272L87.849 108.812L86.9373 104.456L86.2051 100.205L85.6529 96.0619L85.2812 92.0279L85.0904 88.1046L85.0808 84.2937L85.2525 80.5965L85.6057 77.0145L86.1404 73.5493L86.8567 70.2021L87.7544 66.9742L88.8334 63.8669L90.0933 60.8815L91.5341 58.019L93.1551 55.2806L94.956 52.6675L96.9362 50.1803L99.095 47.8204L101.432 45.5883L103.946 43.4852L106.636 41.5116L109.502 39.6683L112.543 37.9561L115.756 36.3755L119.143 34.927L122.7 33.6113L126.427 32.4286L130.322 31.3795L134.384 30.4643L138.612 29.6833L143.004 29.0366L147.557 28.5244L152.272 28.1469L157.145 27.9041L162.175 27.796L167.361 27.8226L172.699 27.9837L178.188 28.2791L183.826 28.7087L189.611 29.2721L195.541 29.969L201.612 30.799L207.824 31.7617L214.172 32.8565L220.656 34.0829L227.272 35.4403L234.018 36.928L240.89 38.5453L247.888 40.2913L255.006 42.1654L262.244 44.1665L269.597 46.2938L277.064 48.5462L284.64 50.9227L292.324 53.4223L300.111 56.0437L307.999 58.7858L315.985 61.6474L324.065 64.6271L332.236 67.7236L340.495 70.9355L348.839 74.2615L357.264 77.6999L365.766 81.2493L374.343 84.9082L382.99 88.6748L391.705 92.5475L400.484 96.5247L409.322 100.604L418.218 104.785L427.166 109.065L436.163 113.442L445.206 117.914L454.291 122.48L463.414 127.137L472.571 131.883L481.759 136.717L490.974 141.635L500.211 146.637L509.468 151.72L518.741 156.881L528.024 162.119L537.316 167.432L546.611 172.816L555.907 178.27L565.198 183.791L574.482 189.377L583.754 195.026L593.01 200.735L602.247 206.501L611.461 212.323L620.648 218.198L629.804 224.123L638.926 230.096L648.009 236.114L657.049 242.175L666.043 248.276L674.987 254.415L683.878 260.588L692.711 266.794L701.482 273.03L710.189 279.293L718.827 285.58L727.393 291.89L735.883 298.218L744.294 304.564L752.621 310.923L760.862 317.293L769.012 323.672L777.069 330.057L785.029 336.445L792.889 342.834L800.644 349.22L808.293 355.602L815.831 361.977L823.255 368.341L830.563 374.693L837.75 381.03L844.814 387.348L851.752 393.646L858.561 399.921L865.237 406.171L871.779 412.392L878.183 418.582L884.446 424.738L890.565 430.859L896.538 436.942L902.363 442.983L908.036 448.981L913.555 454.933L918.918 460.836L924.123 466.689L929.166 472.489L934.047 478.234L938.761 483.92L943.309 489.547L947.686 495.111L951.893 500.61L955.925 506.042L959.783 511.406L963.463 516.698L966.965 521.917L970.286 527.06L973.426 532.126L976.382 537.112L979.153 542.016L981.738 546.837L984.136 551.573L986.345 556.221L988.365 560.78L990.194 565.248L991.831 569.623L993.276 573.904L994.528 578.089L995.586 582.175L996.45 586.163L997.118 590.049L997.591 593.833L997.869 597.513L997.95 601.087L997.834 604.555L997.523 607.914L997.015 611.164L996.31 614.304L995.41 617.331L994.313 620.246L993.02 623.046L991.532 625.732L989.849 628.301L987.971 630.753L985.899 633.087L983.635 635.303L981.178 637.398L978.529 639.374L975.69 641.228L972.662 642.96L969.445 644.571L966.041 646.058L962.451 647.422L958.676 648.662L954.718 649.778L950.578 650.769L946.258 651.636L941.76 652.377L937.085 652.994L932.235 653.485L927.212 653.85L922.018 654.09L916.654 654.205L911.124 654.195L905.429 654.059L899.572 653.798L893.554 653.412L887.378 652.902L881.047 652.268L874.564 651.51L867.929 650.629L861.148 649.625L854.221 648.498L847.152 647.25L839.944 645.881L832.599 644.392L825.121 642.783L817.512 641.055L809.777 639.209L801.916 637.247L793.935 635.168L785.837 632.974L777.623 630.665L769.299 628.244L760.866 625.711L752.33 623.067L743.692 620.314L734.957 617.452L726.129 614.484L717.211 611.41L708.206 608.231L699.118 604.95L689.951 601.567L680.709 598.085L671.396 594.504L662.015 590.827L652.57 587.054L643.066 583.189L633.506 579.231L623.893 575.184L614.233 571.048L604.529 566.826L594.785 562.519L585.005 558.13L575.194 553.66L565.354 549.111L555.491 544.486L545.609 539.785L535.711 535.012L525.802 530.168L515.886 525.255L505.967 520.275L496.049 515.232L486.137 510.125L476.233 504.959L466.344 499.735L456.472 494.455L446.623 489.122L436.799 483.737L427.006 478.304L417.247 472.824L407.526 467.3L397.848 461.733L388.217 456.128L378.636 450.485L369.11 444.807L359.643 439.096L350.239 433.355L340.901 427.587L331.634 421.794L322.442 415.977L313.328 410.14L304.297 404.286L295.352 398.415L286.497 392.532L277.736 386.637L269.073 380.735L260.511 374.827L252.054 368.915L243.705 363.002L235.469 357.091L227.348 351.184L219.346 345.284L211.467 339.392L203.714 333.511L196.09 327.644L188.599 321.793L181.244 315.961L174.027 310.149L166.953 304.361L160.024 298.598L153.243 292.863L146.613 287.158L140.137 281.486L133.818 275.848L127.659 270.248L121.662 264.687L115.83 259.168L110.165 253.692L104.67 248.263L99.3473 242.882L94.1993 237.551L89.2283 232.273L84.4366 227.049L79.8261 221.882L75.3989 216.774L71.157 211.726L67.1023 206.742L63.2366 201.822L59.5618 196.969L56.0793 192.184L52.7909 187.47L49.698 182.829L46.802 178.261L44.1043 173.77L41.6062 169.356L39.3087 165.022L37.2131 160.769L35.3203 156.599L33.6312 152.513L32.1467 148.513L30.8675 144.6L29.7943 140.777L28.9276 137.044L28.268 133.403L27.8158 129.855L27.5715 126.402L27.5351 123.045L27.7069 119.785L28.0868 116.623L28.675 113.561L29.4711 110.599L30.4752 107.739L31.6867 104.983L33.1055 102.33L34.7309 99.7813L36.5625 97.3388L38.5995 95.0028L40.8413 92.7742L43.287 90.6538L45.9358 88.6424L48.7865 86.7405L51.8383 84.9488L55.0898 83.2679L58.5399 81.6984L62.1872 80.2409L66.0303 78.8956L70.0677 77.6631L74.2978 76.5437L78.719 75.5377L83.3294 74.6453L88.1274 73.8669L93.1109 73.2026L98.278 72.6524L103.627 72.2165L109.155 71.8949L114.86 71.6876L120.74 71.5946L126.792 71.6156L133.015 71.7506L139.405 71.9993L145.96 72.3616L152.677 72.837L159.554 73.4253L166.587 74.1261L173.775 74.9389L181.113 75.8633L188.599 76.8987L196.23 78.0446L204.003 79.3003L211.915 80.6652L219.961 82.1386L228.14 83.7198L236.447 85.4079L244.88 87.2021L253.434 89.1016L262.107 91.1054L270.894 93.2125L279.792 95.4221L288.798 97.733L297.907 100.144L307.115 102.654L316.42 105.263L325.817 107.968L335.303 110.768L344.872 113.663L354.522 116.651L364.248 119.73L374.046 122.9L383.913 126.158L393.843 129.504L403.834 132.936L413.88 136.452L423.978 140.051L434.123 143.731L444.311 147.491L454.538 151.328L464.8 155.242L475.092 159.231L485.41 163.293L495.749 167.425L506.106 171.627L516.476 175.897L526.854 180.232L537.236 184.631L547.619 189.092L557.996 193.613L568.365 198.192L578.721 202.828L589.059 207.517L599.375 212.259L609.665 217.051L619.924 221.891L630.148 226.778L640.333 231.709L650.475 236.681L660.568 241.694L670.609 246.744L680.594 251.83L690.519 256.95L700.378 262.102L710.169 267.282L719.886 272.49L729.526 277.723L739.085 282.979L748.558 288.256L757.942 293.551L767.233 298.863L776.426 304.188L785.517 309.526L794.504 314.874L803.382 320.229L812.147 325.59L820.795 330.954L829.323 336.319L837.728 341.683L846.004 347.043L854.151 352.398L862.162 357.746L870.036 363.084L877.768 368.41L885.356 373.721L892.796 379.017L900.085 384.294L907.22 389.551L914.198 394.785L921.015 399.995L927.669 405.178L934.158 410.332L940.477 415.455L946.625 420.545L952.599 425.601L958.396 430.62L964.014 435.599L969.45 440.538L974.701 445.434L979.767 450.286L984.644 455.091L989.33 459.847L993.823 464.553L998.122 469.207L1002.22 473.807L1006.13 478.351L1009.83 482.838L1013.33 487.265L1016.63 491.632L1019.72 495.936L1022.61 500.176L1025.29 504.35L1027.76 508.456L1030.02 512.493L1032.08 516.46L1033.91 520.355L1035.54 524.176L1036.95 527.922L1038.15 531.592L1039.14 535.184L1039.9 538.697L1040.46 542.129L1040.8 545.48L1040.92 548.748L1040.82 551.932L1040.51 555.031L1039.98 558.043L1039.24 560.968L1038.28 563.805L1037.11 566.552L1035.72 569.208L1034.11 571.773L1032.29 574.246L1030.26 576.626L1028.02 578.911L1025.56 581.102L1022.9 583.197L1020.02 585.197L1016.94 587.099L1013.64 588.904L1010.15 590.61L1006.44 592.219L1002.54 593.728L998.433 595.137L994.126 596.447L989.622 597.656L984.921 598.764L980.026 599.772L974.939 600.678L969.661 601.483L964.196 602.186L958.544 602.787L952.71 603.287L946.694 603.685L940.499 603.981L934.129 604.175L927.585 604.267L920.87 604.258L913.987 604.147L906.939 603.935L899.729 603.622L892.36 603.209L884.835 602.694L877.156 602.08L869.328 601.366L861.354 600.553L853.235 599.641L844.978 598.631L836.583 597.524L828.056 596.319L819.399 595.018L810.617 593.621L801.712 592.129L792.689 590.542L783.551 588.863L774.303 587.09L764.948 585.226L755.489 583.27L745.932 581.225L736.279 579.091L726.535 576.868L716.705 574.559L706.791 572.164L696.799 569.683L686.733 567.119L676.596 564.473L666.393 561.745L656.128 558.936L645.806 556.049L635.431 553.085L625.007 550.043L614.538 546.927L604.03 543.737L593.486 540.475L582.912 537.143L572.31 533.74L561.686 530.27L551.045 526.734L540.39 523.132L529.727 519.468L519.059 515.741L508.392 511.954L497.729 508.109L487.076 504.206L476.436 500.249L465.814 496.237L455.216 492.174L444.644 488.06L434.104 483.898L423.6 479.689L413.136 475.435L402.718 471.138L392.349 466.799L382.033 462.421L371.776 458.005L361.581 453.552L351.452 449.066L341.395 444.547L331.413 439.997L321.511 435.419L311.692 430.814L301.961 426.184L292.322 421.531L282.779 416.856L273.336 412.163L263.997 407.452L254.766 402.725L245.647 397.985L236.644 393.234L227.761 388.472L219 383.703L210.368 378.928L201.865 374.149L193.498 369.367L185.268 364.586L177.18 359.806L169.236 355.03L161.441 350.259L153.797 345.495L146.308 340.741L138.977 335.997L131.808 331.267L124.802 326.552L117.964 321.853L111.295 317.172L104.8 312.512L98.4804 307.874L92.339 303.26L86.3786 298.672L80.6018 294.111L75.0109 289.579L69.6085 285.079L64.3967 280.611L59.3779 276.177L54.5541 271.78L49.9274 267.42L45.4999 263.1L41.2733 258.822L37.2496 254.585L33.4305 250.393L29.8175 246.248L26.4123 242.149L23.2163 238.1L20.2309 234.101L17.4574 230.154L14.8969 226.261L12.5506 222.422L10.4195 218.64L8.50458 214.916L6.80661 211.251L5.32632 207.647L4.06443 204.104L3.0215 200.624L2.19786 197.209L1.59404 193.859L1.2103 190.577L1.04672 187.362L1.10352 184.216L1.38071 181.141L1.87807 178.137L2.59554 175.206L3.53274 172.348L4.68938 169.564L6.065 166.856L7.65897 164.225L9.4707 161.67L11.4994 159.194L13.7443 156.797L16.2045 154.48L18.8789 152.243L21.7664 150.087L24.8658 148.014L28.1759 146.024L31.6952 144.116L35.4224 142.293L39.3558 140.554L43.4938 138.901L47.8347 137.333L52.3766 135.851L57.1178 134.455L62.0561 133.147L67.1895 131.926L72.5159 130.792L78.0331 129.746L83.7387 128.789L89.6303 127.92L95.7055 127.139L101.962 126.447L108.396 125.844L115.007 125.33L121.79 124.905L128.743 124.569L135.863 124.322L143.148 124.164L150.594 124.095L158.197 124.114L165.956 124.222L173.866 124.419L181.924 124.703L190.127 125.076L198.471 125.536L206.953 126.083L215.569 126.718L224.316 127.438L233.19 128.245L242.187 129.138L251.303 130.115L260.535 131.177L269.879 132.324L279.33 133.553L288.885 134.866L298.54 136.261L308.291 137.737L318.133 139.294L328.063 140.931L338.075 142.647L348.167 144.442L358.334 146.315L368.571 148.264L378.874 150.289L389.239 152.389L399.661 154.563L410.137 156.811L420.661 159.13L431.229 161.52L441.837 163.98L452.48 166.51L463.154 169.107L473.854 171.77L484.576 174.5L495.316 177.293L506.068 180.15L516.828 183.069L527.591 186.048L538.354 189.087L549.112 192.185L559.859 195.339L570.592 198.548L581.306 201.812L591.996 205.129L602.658 208.497L613.288 211.916L623.88 215.383L634.431 218.898L644.936 222.458L655.391 226.063L665.791 229.71L676.131 233.399L686.408 237.128L696.618 240.896L706.755 244.7L716.815 248.54L726.795 252.414L736.69 256.32L746.496 260.256L756.208 264.222L765.824 268.216L775.338 272.235L784.746 276.279L794.046 280.345L803.232 284.433L812.3 288.541L821.248 292.666L830.072 296.808L838.767 300.964L847.329 305.134L855.756 309.315L864.044 313.506L872.189 317.705L880.188 321.911L888.038 326.122L895.734 330.336L903.275 334.552L910.656 338.768L917.875 342.982L924.929 347.194L931.814 351.4L938.529 355.601L945.069 359.793L951.432 363.976L957.616 368.147L963.618 372.306L969.435 376.451L975.065 380.58L980.506 384.691L985.755 388.784L990.811 392.856L995.67 396.906L1000.33 400.932L1004.79 404.934L1009.05 408.909L1013.11 412.856L1016.96 416.773L1020.6 420.66L1024.04 424.514L1027.27 428.335L1030.28 432.12L1033.08 435.869L1035.67 439.58L1038.05 443.252L1040.2 446.883L1042.15 450.472L1043.87 454.019L1045.38 457.52L1046.66 460.976L1047.73 464.385L1048.58 467.746L1049.21 471.057L1049.62 474.318L1049.81 477.527L1049.78 480.683L1049.53 483.785L1049.06 486.832L1048.36 489.823L1047.45 492.757L1046.32 495.632L1044.97 498.448L1043.41 501.204L1041.62 503.9L1039.62 506.532L1037.4 509.102L1034.97 511.609L1032.32 514.05L1029.47 516.426L1026.4 518.736L1023.12 520.979L1019.63 523.154L1015.93 525.26L1012.03 527.298L1007.93 529.265L1003.62 531.162L999.114 532.988L994.409 534.742L989.507 536.424L984.411 538.034L979.123 539.57L973.646 541.032L967.98 542.421L962.13 543.735L956.098 544.974L949.885 546.138L943.495 547.226L936.931 548.238L930.195 549.175L923.29 550.035L916.219 550.818L908.985 551.525L901.591 552.155L894.041 552.708L886.337 553.184L878.483 553.583L870.482 553.904L862.337 554.149L854.052 554.317L845.631 554.407L837.077 554.421L828.394 554.357L819.585 554.217L810.654 554.001L801.605 553.708L792.442 553.339L783.168 552.895L773.788 552.374L764.306 551.779L754.725 551.109L745.049 550.364L735.284 549.545L725.432 548.652L715.498 547.687L705.487 546.648L695.401 545.537L685.247 544.355L675.028 543.101L664.748 541.776L654.411 540.382L644.023 538.918L633.587 537.386L623.108 535.785L612.59 534.118L602.038 532.383L591.456 530.583L580.849 528.718L570.221 526.788L559.576 524.795L548.92 522.739L538.256 520.622L527.589 518.443L516.924 516.205L506.265 513.907L495.616 511.552L484.983 509.139L474.369 506.67L463.778 504.146L453.217 501.568L442.688 498.937L432.196 496.254L421.747 493.52L411.343 490.735L400.99 487.903L390.692 485.022L380.452 482.095L370.277 479.123L360.169 476.106L350.133 473.047L340.173 469.946L330.293 466.804L320.498 463.623L310.792 460.403L301.178 457.147L291.661 453.855L282.244 450.529L272.932 447.17L263.729 443.779L254.638 440.358L245.663 436.907L236.808 433.429L228.077 429.924L219.472 426.394L210.999 422.84L202.66 419.263L194.459 415.666L186.399 412.049L178.483 408.413L170.715 404.76L163.099 401.092L155.637 397.409L148.332 393.713L141.187 390.006L134.206 386.289L127.391 382.563L120.745 378.829L114.271 375.09L107.972 371.346L101.849 367.598L95.9062 363.849L90.1453 360.1L84.5688 356.351L79.1789 352.605L73.978 348.862L68.9681 345.124L64.1513 341.393L59.5295 337.669L55.1047 333.955L50.8785 330.251L46.8528 326.559L43.0292 322.88L39.4092 319.215L35.9942 315.567L32.7857 311.935L29.7848 308.322L26.9929 304.729L24.411 301.157L22.0401 297.607L19.8811 294.081L17.9349 290.579L16.2023 287.104L14.6838 283.656L13.3801 280.236L12.2916 276.846L11.4187 273.488L10.7617 270.161L10.3207 266.868L10.096 263.609L10.0874 260.386L10.295 257.2L10.7186 254.052L11.3579 250.942L12.2126 247.873L13.2821 244.845L14.5661 241.859L16.0638 238.917L17.7746 236.019L19.6977 233.166L21.8321 230.359L24.1769 227.599L26.7311 224.888L29.4934 222.226L32.4627 219.614L35.6375 217.052L39.0165 214.543L42.5983 212.086L46.3811 209.683L50.3633 207.334L54.5432 205.04L58.919 202.801L63.4886 200.62L68.2502 198.496L73.2016 196.429L78.3407 194.422L83.6652 192.474L89.1728 190.586L94.8612 188.758L100.728 186.992L106.77 185.288L112.986 183.645L119.372 182.066L125.925 180.55L132.643 179.098L139.524 177.711L146.563 176.388L153.758 175.13L161.106 173.938L168.604 172.812L176.249 171.752L184.036 170.758L191.963 169.832L200.027 168.972L208.224 168.18L216.551 167.455L225.003 166.799L233.578 166.21L242.271 165.689L251.08 165.236L259.999 164.852L269.026 164.536L278.157 164.288L287.387 164.109L296.713 163.999L306.131 163.956L315.637 163.983L325.227 164.077L334.896 164.239L344.641 164.47L354.457 164.769L364.341 165.135L374.287 165.569L384.293 166.07L394.353 166.638L404.464 167.273L414.621 167.974L424.82 168.742L435.056 169.575L445.325 170.475L455.624 171.439L465.947 172.468L476.29 173.561L486.649 174.718L497.02 175.939L507.397 177.222L517.778 178.568L528.156 179.975L538.529 181.444L548.892 182.974L559.24 184.563L569.569 186.212L579.874 187.92L590.152 189.687L600.398 191.51L610.607 193.391L620.776 195.327L630.901 197.319L640.976 199.366L650.998 201.466L660.963 203.619L670.866 205.825L680.703 208.082L690.471 210.389L700.165 212.746L709.781 215.152L719.315 217.606L728.763 220.107L738.121 222.654L747.386 225.245L756.553 227.881L765.619 230.561L774.58 233.282L783.432 236.045L792.172 238.847L800.795 241.689L809.299 244.569L817.68 247.486L825.935 250.439L834.059 253.427L842.05 256.449L849.905 259.504L857.62 262.59L865.192 265.706L872.617 268.852L879.894 272.026L887.019 275.227L893.988 278.454L900.8 281.706L907.451 284.981L913.939 288.279L920.261 291.598L926.415 294.937L932.397 298.295L938.206 301.67L943.84 305.061L949.295 308.468L954.57 311.889L959.663 315.322L964.572 318.767L969.294 322.223L973.828 325.687L978.172 329.159L982.325 332.637L986.284 336.121L990.048 339.609L993.616 343.1L996.987 346.592L1000.16 350.084L1003.13 353.576L1005.9 357.065L1008.47 360.551L1010.83 364.033L1012.99 367.508L1014.95 370.977L1016.69 374.437L1018.24 377.887L1019.57 381.327L1020.7 384.754L1021.62 388.169L1022.34 391.569L1022.84 394.953L1023.14 398.321L1023.23 401.67L1023.11 405L1022.78 408.31L1022.25 411.598L1021.51 414.864L1020.56 418.106L1019.4 421.322L1018.04 424.513L1016.48 427.676L1014.71 430.811L1012.73 433.916L1010.56 436.991L1008.18 440.034L1005.61 443.045L1002.83 446.021L999.857 448.963L996.687 451.868L993.323 454.737L989.765 457.568L986.015 460.36L982.075 463.112L977.947 465.823L973.633 468.493L969.134 471.119L964.453 473.702L959.592 476.24L954.552 478.733L949.336 481.179L943.946 483.578L938.385 485.929L932.656 488.231L926.76 490.484L920.7 492.686L914.479 494.836L908.099 496.935L901.564 498.98L894.876 500.972L888.038 502.91L881.054 504.793L873.925 506.621L866.656 508.392L859.248 510.106L851.707 511.763L844.034 513.362L836.233 514.902L828.308 516.384L820.261 517.805L812.097 519.166L803.818 520.467L795.429 521.707L786.933 522.884L778.333 524L769.633 525.054L760.838 526.045L751.95 526.973L742.973 527.837L733.912 528.637L724.77 529.374L715.551 530.046L706.259 530.654L696.897 531.196L687.471 531.674L677.983 532.087L668.438 532.434L658.841 532.716L649.194 532.933L639.502 533.083L629.769 533.169L619.999 533.188L610.197 533.142L600.366 533.029L590.51 532.851L580.635 532.608L570.743 532.299L560.839 531.924L550.928 531.484L541.012 530.979L531.098 530.409L521.187 529.773L511.286 529.073L501.397 528.309L491.526 527.481L481.675 526.588L471.85 525.632L462.054 524.613L452.292 523.53L442.566 522.386L432.883 521.179L423.245 519.91L413.656 518.58L404.121 517.189L394.643 515.737L385.227 514.226L375.876 512.655L366.594 511.025L357.385 509.337L348.252 507.592L339.2 505.789L330.232 503.93L321.352 502.014L312.564 500.044L303.871 498.019L295.276 495.94L286.783 493.809L278.396 491.624L270.119 489.389L261.953 487.102L253.904 484.765L245.973 482.379L238.165 479.945L230.482 477.463L222.928 474.934L215.505 472.36L208.216 469.74L201.066 467.077L194.055 464.37L187.188 461.622L180.467 458.832L173.895 456.002L167.473 453.132L161.206 450.225L155.095 447.28L149.142 444.299L143.351 441.283L137.723 438.232L132.261 435.149L126.966 432.034L121.842 428.888L116.889 425.712L112.109 422.508L107.506 419.276L103.08 416.018L98.8324 412.734L94.7659 409.427L90.8816 406.096L87.181 402.744L83.6655 399.371L80.3365 395.98L77.195 392.569L74.2424 389.142L71.4796 385.7L68.9076 382.242L66.5274 378.772L64.3398 375.289L62.3456 371.796L60.5453 368.293L58.9397 364.782L57.5291 361.264L56.3141 357.74L55.2949 354.211L54.4718 350.679L53.845 347.145L53.4146 343.611L53.1805 340.076L53.1428 336.544L53.3012 333.015L53.6555 329.489L54.2055 325.97L54.9507 322.457L55.8905 318.953L57.0245 315.458L58.3521 311.973L59.8724 308.501L61.5847 305.041L63.4881 301.596L65.5817 298.167L67.8643 294.754L70.3349 291.36L72.9923 287.985L75.8352 284.63L78.8623 281.297L82.0721 277.988L85.463 274.703L89.0338 271.443L92.7824 268.209L96.7074 265.004L100.807 261.828L105.079 258.681L109.522 255.566L114.133 252.484L118.911 249.435L123.854 246.421L128.958 243.443L134.223 240.502L139.646 237.599L145.223 234.735L150.954 231.911L156.834 229.128L162.863 226.388L169.036 223.691L175.352 221.039L181.807 218.432L188.399 215.871L195.125 213.358L201.982 210.893L208.966 208.477L216.076 206.111L223.308 203.796L230.658 201.534L238.124 199.324L245.702 197.167L253.39 195.066L261.183 193.019L269.078 191.029L277.073 189.095L285.164 187.219L293.346 185.402L301.617 183.643L309.974 181.945L318.412 180.307L326.928 178.73L335.519 177.215L344.181 175.762L352.909 174.372L361.701 173.046L370.553 171.784L379.461 170.586L388.421 169.454L397.429 168.387L406.482 167.387L415.576 166.453L424.707 165.586L433.871 164.786L443.065 164.054L452.284 163.39L461.525 162.794L470.783 162.268L480.056 161.81L489.339 161.421L498.627 161.101L507.919 160.852L517.208 160.672L526.493 160.562L535.768 160.522L545.03 160.552L554.275 160.652L563.5 160.823L572.7 161.063L581.872 161.375L591.012 161.756L600.116 162.208L609.18 162.73L618.201 163.321L627.175 163.983L636.098 164.715L644.967 165.516L653.779 166.386L662.528 167.326L671.213 168.334L679.829 169.411L688.372 170.556L696.841 171.769L705.23 173.05L713.536 174.398L721.757 175.813L729.889 177.294L737.929 178.841L745.872 180.453L753.718 182.131L761.461 183.872L769.099 185.678L776.629 187.547L784.047 189.478L791.352 191.472L798.54 193.526L805.608 195.642L812.553 197.817L819.373 200.052L826.065 202.346L832.626 204.697L839.054 207.105L845.346 209.569L851.499 212.089L857.512 214.663L863.383 217.29L869.107 219.971L874.685 222.703L880.113 225.486L885.388 228.319L890.511 231.201L895.477 234.131L900.286 237.108L904.936 240.131L909.424 243.198L913.75 246.309L917.911 249.463L921.906 252.659L925.734 255.895L929.393 259.17L932.881 262.484L936.198 265.834L939.343 269.221L942.314 272.641L945.11 276.096L947.73 279.582L950.174 283.099L952.44 286.646L954.529 290.221L956.438 293.824L958.168 297.452L959.718 301.105L961.087 304.78L962.276 308.478L963.284 312.196L964.11 315.933L964.756 319.688L965.219 323.46L965.502 327.246L965.603 331.046L965.523 334.858L965.262 338.682L964.82 342.514L964.198 346.355L963.396 350.202L962.415 354.055L961.256 357.911L959.918 361.769L958.403 365.629L956.712 369.488L954.846 373.345L952.805 377.198L950.59 381.047L948.204 384.889L945.646 388.724L942.918 392.549L940.022 396.364L936.958 400.166L933.729 403.955L930.336 407.729L926.78 411.487L923.063 415.227L919.186 418.948L915.153 422.648L910.964 426.326L906.621 429.98L902.126 433.61L897.482 437.213L892.69 440.788L887.753 444.335L882.672 447.851L877.451 451.335L872.091 454.786L866.594 458.202L860.964 461.583L855.203 464.926L849.312 468.231L843.295 471.497L837.155 474.721L830.894 477.902L824.514 481.04L818.019 484.133L811.412 487.18L804.694 490.18L797.87 493.131L790.942 496.033L783.912 498.883L776.785 501.682L769.563 504.427L762.249 507.118L754.846 509.754L747.358 512.333L739.788 514.854L732.138 517.317L724.412 519.72L716.614 522.063L708.746 524.344L700.812 526.563L692.816 528.718L684.76 530.808L676.649 532.833L668.485 534.792L660.271 536.684L652.012 538.509L643.711 540.264L635.371 541.95L626.996 543.566L618.589 545.111L610.153 546.584L601.693 547.985L593.212 549.313L584.712 550.568L576.199 551.748L567.674 552.854L559.142 553.884L550.607 554.839L542.071 555.717L533.539 556.519L525.013 557.243L516.498 557.89L507.996 558.459L499.511 558.95L491.048 559.362L482.608 559.695L474.196 559.949L465.814 560.124L457.467 560.219L449.158 560.234L440.89 560.169L432.666 560.025L424.49 559.8L416.365 559.496L408.294 559.111L400.281 558.646L392.328 558.101L384.44 557.476L376.618 556.771L368.867 555.987L361.188 555.123L353.587 554.179L346.064 553.157L338.624 552.055L331.269 550.875L324.002 549.616L316.826 548.28L309.743 546.866L302.758 545.375L295.872 543.807L289.087 542.163L282.407 540.443L275.835 538.649L269.372 536.779L263.022 534.835L256.786 532.818L250.668 530.728L244.669 528.566L238.791 526.333L233.038 524.029L227.411 521.655L221.912 519.212L216.543 516.701L211.307 514.123L206.206 511.477L201.24 508.767L196.413 505.991L191.726 503.152L187.18 500.25L182.777 497.286L178.52 494.261L174.409 491.177L170.445 488.034L166.632 484.834L162.968 481.577L159.457 478.266L156.099 474.9L152.896 471.481L149.848 468.011L146.956 464.491L144.222 460.922L141.646 457.304L139.229 453.641L136.973 449.932L134.877 446.18L132.942 442.385L131.169 438.549L129.559 434.674L128.111 430.76L126.826 426.81L125.705 422.825L124.748 418.806L123.955 414.755L123.325 410.673L122.859 406.562L122.558 402.423L122.42 398.258L122.446 394.068L122.635 389.856L122.987 385.622L123.503 381.368L124.18 377.097L125.019 372.809L126.02 368.505L127.181 364.189L128.502 359.861L129.982 355.523L131.62 351.177L133.416 346.825L135.368 342.467L137.476 338.106L139.738 333.744L142.154 329.382L144.721 325.021L147.439 320.664L150.307 316.313L153.323 311.968L156.485 307.632L159.793 303.307L163.244 298.993L166.837 294.693L170.571 290.409L174.443 286.142L178.452 281.893L182.596 277.666L186.873 273.46L191.281 269.278L195.819 265.122L200.484 260.993L205.274 256.893L210.187 252.823L215.22 248.786L220.373 244.782L225.642 240.814L231.025 236.883L236.519 232.99L242.123 229.138L247.834 225.327L253.649 221.56L259.566 217.837L265.583 214.162L271.696 210.533L277.904 206.955L284.203 203.427L290.591 199.952L297.065 196.53L303.622 193.164L310.26 189.855L316.976 186.603L323.767 183.411L330.63 180.28L337.562 177.211L344.56 174.205L351.622 171.264L358.744 168.389L365.924 165.581L373.158 162.842L380.444 160.172L387.778 157.573L395.157 155.046L402.579 152.592L410.04 150.212L417.538 147.907L425.069 145.678L432.629 143.527L440.217 141.454L447.828 139.46L455.461 137.546L463.111 135.713L470.775 133.962L478.451 132.293L486.135 130.708L493.825 129.207L501.516 127.791L509.207 126.461L516.893 125.217L524.572 124.06L532.241 122.99L539.896 122.009L547.535 121.116L555.155 120.312L562.752 119.598L570.323 118.974L577.866 118.44L585.378 117.997L592.854 117.645L600.294 117.385L607.693 117.216L615.048 117.139L622.358 117.154L629.618 117.262L636.826 117.461L643.98 117.753L651.075 118.138L658.111 118.615L665.084 119.185L671.99 119.846L678.829 120.6L685.596 121.446L692.29 122.384L698.907 123.414L705.445 124.535L711.903 125.747L718.276 127.05L724.563 128.444L730.762 129.927L736.869 131.5L742.884 133.163L748.803 134.914L754.624 136.752L760.345 138.679L765.964 140.692L771.479 142.792L776.888 144.977L782.188 147.247L787.378 149.6L792.457 152.038L797.421 154.557L802.269 157.158L807.001 159.84L811.612 162.601L816.103 165.442L820.472 168.359L824.716 171.354L828.835 174.425L832.827 177.569L836.691 180.788L840.424 184.078L844.027 187.44L847.498 190.872L850.835 194.372L854.037 197.939L857.104 201.573L860.034 205.271L862.827 209.032L865.481 212.856L867.996 216.74L870.371 220.683L872.605 224.683L874.698 228.74L876.648 232.851L878.456 237.015L880.12 241.231L881.641 245.496L883.018 249.81L884.251 254.17L885.339 258.576L886.283 263.024L887.081 267.514L887.735 272.043L888.243 276.611L888.607 281.215L888.826 285.854L888.9 290.525L888.829 295.227L888.615 299.958L888.256 304.717L887.754 309.501L887.108 314.308L886.32 319.137L885.39 323.985L884.318 328.852L883.106 333.734L881.753 338.63L880.261 343.539L878.631 348.457L876.863 353.383L874.958 358.316L872.917 363.253L870.741 368.192L868.432 373.132L865.991 378.069L863.418 383.003L860.715 387.931L857.883 392.852L854.923 397.763L851.838 402.662L848.628 407.548L845.295 412.418L841.84 417.271L838.265 422.104L834.571 426.915L830.761 431.703L826.835 436.466L822.797 441.201L818.646 445.907L814.386 450.581L810.018 455.223L805.544 459.829L800.966 464.398L796.286 468.929L791.506 473.418L786.628 477.865L781.654 482.267L776.586 486.624L771.427 490.931L766.178 495.189L760.842 499.395L755.422 503.548L749.918 507.645L744.335 511.686L738.673 515.667L732.935 519.588L727.125 523.447L721.243 527.242L715.294 530.972L709.278 534.635L703.199 538.229L697.059 541.753L690.86 545.206L684.606 548.585L678.298 551.89L671.94 555.119L665.533 558.27L659.081 561.342L652.586 564.334L646.051 567.245L639.478 570.072L632.87 572.816L626.23 575.474L619.56 578.046L612.863 580.529L606.142 582.924L599.4 585.229L592.638 587.443L585.86 589.565L579.068 591.594L572.266 593.529L565.455 595.369L558.639 597.113L551.82 598.76L545.001 600.31L538.185 601.761L531.374 603.114L524.571 604.367L517.778 605.519L510.998 606.571L504.235 607.521L497.489 608.368L490.765 609.114L484.065 609.756L477.391 610.295L470.745 610.73L464.131 611.06L457.551 611.287L451.008 611.408L444.503 611.425L438.04 611.337L431.621 611.143L425.248 610.844L418.924 610.44L412.651 609.931L406.431 609.316L400.267 608.597L394.162 607.772L388.116 606.842L382.134 605.808L376.216 604.67L370.366 603.427L364.585 602.081L358.875 600.631L353.239 599.079L347.679 597.424L342.196 595.668L336.793 593.81L331.472 591.851L326.234 589.793L321.081 587.635L316.016 585.378L311.04 583.024L306.155 580.572L301.363 578.025L296.665 575.382L292.064 572.645L287.56 569.815L283.155 566.892L278.851 563.877L274.65 560.773L270.552 557.58L266.559 554.298L262.673 550.93L258.895 547.477L255.227 543.939L251.668 540.319L248.222 536.617L244.888 532.835L241.668 528.974L238.563 525.036L235.574 521.023L232.702 516.935L229.947 512.774L227.311 508.543L224.795 504.242L222.4 499.873L220.125 495.439L217.972 490.939L215.941 486.378L214.033 481.755L212.249 477.073L210.588 472.334L209.052 467.54L207.64 462.692L206.354 457.793L205.193 452.843L204.157 447.846L203.248 442.804L202.464 437.717L201.806 432.589L201.274 427.421L200.868 422.215L200.589 416.974L200.435 411.699L200.407 406.393L200.504 401.058L200.726 395.695L201.074 390.307L201.546 384.897L202.142 379.466L202.863 374.016L203.706 368.55L204.672 363.07L205.761 357.578L206.971 352.077L208.301 346.568L209.752 341.054L211.323 335.537L213.012 330.02L214.818 324.504L216.742 318.992L218.782 313.486L220.936 307.989L223.204 302.502L225.586 297.028L228.079 291.569L230.682 286.128L233.395 280.706L236.216 275.306L239.145 269.93L242.178 264.581L245.316 259.26L248.557 253.97L251.9 248.713L255.342 243.492L258.884 238.307L262.522 233.163L266.255 228.06L270.083 223L274.003 217.987L278.013 213.022L282.112 208.107L286.299 203.245L290.571 198.437L294.927 193.685L299.364 188.992L303.882 184.359L308.478 179.788L313.15 175.282L317.897 170.842L322.716 166.471L327.605 162.169L332.563 157.939L337.588 153.783L342.677 149.703L347.829 145.7L353.041 141.776L358.311 137.933L363.638 134.172L369.018 130.495L374.451 126.904L379.933 123.401L385.463 119.986L391.039 116.662L396.657 113.429L402.317 110.29L408.015 107.245L413.751 104.297L419.52 101.446L425.322 98.6938L431.153 96.0416L437.012 93.4904L442.896 91.0417L448.804 88.6965L454.732 86.4558L460.679 84.3208L466.642 82.2925L472.619 80.3717L478.607 78.5596L484.605 76.8568L490.61 75.2644L496.619 73.783L502.632 72.4134L508.644 71.1563L514.654 70.0124L520.66 68.9823L526.66 68.0666L532.65 67.2657L538.63 66.5801L544.596 66.0103L550.547 65.5567L556.48 65.2195L562.393 64.9992L568.283 64.8958L574.149 64.9095L579.989 65.0406L585.8 65.2891L591.58 65.6551L597.328 66.1385L603.04 66.7393L608.715 67.4573L614.35 68.2926L619.945 69.2447L625.496 70.3135L631.001 71.4988L636.46 72.8001L641.868 74.217L647.226 75.7491L652.53 77.3959L657.78 79.1569L662.972 81.0314L668.105 83.019L673.178 85.1187L678.188 87.33L683.133 89.6521L688.013 92.0841L692.825 94.6251L697.567 97.2743L702.238 100.031L706.837 102.893L711.361 105.861L715.808 108.932L720.179 112.107L724.47 115.383L728.681 118.76L732.81 122.236L736.855 125.809L740.816 129.479L744.691 133.245L748.478 137.104L752.176 141.055L755.784 145.097L759.302 149.227L762.727 153.446L766.058 157.75L769.295 162.138L772.436 166.609L775.48 171.161L778.427 175.791L781.275 180.498L784.023 185.281L786.672 190.137L789.218 195.065L791.663 200.062L794.005 205.126L796.244 210.256L798.378 215.45L800.408 220.705L802.332 226.019L804.15 231.39L805.861 236.816L807.466 242.295L808.963 247.824L810.352 253.402L811.633 259.026L812.806 264.694L813.87 270.403L814.825 276.151L815.67 281.937L816.406 287.757L817.033 293.609L817.55 299.491L817.958 305.4L818.256 311.334L818.445 317.291L818.524 323.268L818.494 329.262L818.354 335.272L818.106 341.294L817.749 347.327L817.283 353.367L816.71 359.413L816.029 365.461L815.24 371.51L814.345 377.556L813.343 383.598L812.235 389.632L811.022 395.657L809.705 401.669L808.283 407.667L806.757 413.647L805.129 419.608L803.4 425.546L801.568 431.459L799.637 437.346L797.606 443.202L795.476 449.027L793.248 454.816L790.924 460.569" stroke="white" stroke-width="2"/>
</svg>
